<svg xmlns="http://www.w3.org/2000/svg" width="3840" height="2160"><path d="M280.617 1084.572c5.414 2.72 9.902 3.118 15.887 3.03l2.92.024c3.046.023 6.092.014 9.138-.001 3.05-.004 6.1 0 9.15.02 1.888.013 3.776.01 5.664-.01 6.1.027 10.947 1.218 16.624 3.365 1.374.406 2.75.8 4.133 1.176 7.409 2.085 13.595 3.893 18.867 9.824v2l1.734.625c3.136 1.903 4.528 4.312 6.516 7.375l2.14 3.25C375 1118 375 1118 375 1120l1.812.688c2.773 1.663 3.621 3.519 5.188 6.312l1.328 1.254c2.806 2.93 4.833 6.534 6.916 10.008 3.098 4.758 6.297 6.402 11.756 7.738 3.111.648 6.227 1.128 9.375 1.563 1.686.252 3.373.506 5.059.761L421 1149c8.503 1.28 16.691 3.783 24.102 8.273 1.906.962 1.906.962 3.898.047l2-1.195c3.197-1.886 4.033-2.125 8-2.125l.937-1.937C461 1150 461 1150 462 1149c20.024-4.475 47.211-5.458 65.93 3.973 2.307 1.145 4.654 2.012 7.07 2.902 3.481 1.358 6.294 2.929 9.312 5.125 4.528 3.193 9.161 4.606 14.477 6.043 3.211.957 3.211.957 6.254 2.566 5.527 2.443 11.739 1.618 17.644 1.454 7.878-.199 15.192-.071 22.94 1.402 13.979 2.217 28.467 1.68 42.579 1.664l6.547.006c5.888.004 11.776.003 17.665 0 6.225-.003 12.45 0 18.676 0 11.151.003 22.303 0 33.455-.006 11.318-.005 22.636-.002 33.955.003 10.385.005 20.771.005 31.157.003 6.16-.002 12.32-.002 18.48.001 23.36.011 46.717-.037 70.074-.463 2.04-.037 4.08-.071 6.12-.102 2.802-.044 5.604-.101 8.406-.162l2.454-.033c4.79-.122 9.181-.76 13.832-1.93 2.856-.646 5.614-.685 8.535-.684l3.628-.039 3.81-.035c10.073-.215 19.787-.974 29.687-3l2.979-.61c8.496-1.879 16.482-4.825 24.459-8.265 4.659-1.904 8.865-2.49 13.875-2.813v-2h4v-2c2.639-1.783 4.972-2.99 8-4v-2h3v-2l5-1v-1c7.514-.966 14.329-.938 21.812.188l2.887.407c6.686 1.002 12.937 2.503 19.328 4.733 6.018 1.36 11.55-.675 17.285-2.515l2.09-.663a401.561 401.561 0 0 0 10.868-3.638c1.45-.506 2.903-1.01 4.355-1.512l2.226-.77c6.092-2.035 12.24-3.374 18.524-4.667 7.69-1.602 13.662-3.526 20.187-8.012 2.721-1.731 5.356-2.641 8.438-3.551v-2l3.187-1.312c2.35-.995 4.324-2.009 6.5-3.375C1156 1114 1156 1114 1160 1114v-2a114045725.841 114045725.841 0 0 1 4.25-2.312l2.992-1.622a547.492 547.492 0 0 0 8.766-4.914l2.675-1.508a641.287 641.287 0 0 0 5.322-3.036l2.518-1.413 2.248-1.28c2.557-1.05 4.49-1.084 7.229-.915l1-3c3.112 0 5.942.456 9 1v2h3v2l2.187.813c2.813 1.187 2.813 1.187 5.098 2.707 3.11 1.695 5.455 2.007 8.965 2.355 6.35.894 10.444 2.64 15.75 6.125a1105.83 1105.83 0 0 0 5.741 3.63c1.33.84 2.654 1.685 3.973 2.54A199.816 199.816 0 0 0 1257 1119l2.724 1.62c7.584 4.186 13.802 5.31 22.401 5.318l3.664.063c18.054.22 35.999-.669 53.945-2.599A79.76 79.76 0 0 1 1350 1123v-2l1.906-.297c5.168-.903 9.424-2.127 14.028-4.629 3.132-1.628 6.405-2.854 9.691-4.136 1.997-.789 3.97-1.638 5.937-2.5L1385 1108l1.937-.852c14.575-5.733 30.129-.68 44.18 4.262 2.916.914 5.855 1.247 8.883 1.59l2.816.707c4.041.372 5.915-.695 9.434-2.644 5.609-3.063 5.609-3.063 7.75-3.063l2-5h4v-2l3.078.176c14.327.575 23.895-4.118 35.598-11.992 12.62-8.29 12.62-8.29 18.511-8.059 4.846 1.112 9.26 2.905 13.813 4.875v1l3.187.313c3.84.692 5.57 1.654 8.813 3.687 6.17 3.304 12.148 6.443 19 8v-3l3.035-.805 4.027-1.07 1.99-.527a344.226 344.226 0 0 0 9.64-2.696c2.796-.762 5.307-1.23 8.183-1.464 2.859-.049 2.859-.049 5.125-1.438 3.479-.719 6.53-.781 10 0 5.113 3.993 8.5 9.615 12 15l2 1v3h2v2l2.412-.063c3.654-.084 7.308-.136 10.963-.187l3.793-.102c7.01-.073 12.387.344 18.67 3.583 2.773.986 4.383.643 7.162-.231.583-.605 1.165-1.21 1.766-1.832 3.21-3.115 6.84-4.301 10.984-5.855l2.344-.932c8.79-3.37 16.625-3.5 25.906-2.943l2.926.158c2.358.128 4.716.263 7.074.404v-2c15.036-9.718 33.714-8.513 51-8l3.387.09c13.115.661 26.448 2.81 39.298 5.465 2.662.512 5.108.506 7.815.445 2.76-.062 5.2-.062 7.906.5 2.697.608 2.697.608 5.91.477 3.996.025 7.72.629 11.621 1.398 13.367 2.617 26.899 3.874 40.461 4.944 3.919.31 7.837.63 11.754.95l2.318.19c9.185.75 18.359 1.626 27.53 2.541l.875-2.812C1931 1102 1931 1102 1933 1099c3.763-1.76 6.935-.4 10.75.75l3.777 1.133c2.635.847 5.21 1.733 7.785 2.742 9.561 3.565 18.567 3.596 28.625 3.438 2.13-.028 4.26-.053 6.391-.072 1.914-.017 3.828-.045 5.742-.073 2.93.082 2.93.082 4.93 1.082 2.975 1.08 5.985 2.04 9 3l3.562 1.188c4.799 1.182 9.721.94 14.628.826 4.086-.085 7.796.272 11.81.986 2.312.12 4.624.223 6.937.313 5.84.37 9.374 1.226 14.063 4.687v2c6.152 1.843 14.52 2.78 20.344-.2a98.655 98.655 0 0 0 3.746-3.206c9.62-8.027 25.086-8.405 36.91-7.594 6.921.865 13.707 2.125 20.25 4.563 5.432 1.861 10.736 1.996 16.437 2.125l3.232.112c5.422.173 10.785.167 16.206-.05 12.459-.03 25.189 2.884 35.925 9.18 12.771 7.393 25.009 6.9 39.358 6.403l2.507-.085c1.553-.059 3.105-.131 4.656-.22 4.669-.209 8.655.35 13.187 1.468 3.637.818 7.292 1.08 11.004 1.356l2.407.193c1.662.132 3.325.261 4.988.388 2.535.192 5.069.395 7.603.598l4.877.383 2.273.18c4.037.304 8.042.564 12.09.406l1-1c4.762-.34 8.455.659 13 2 16.552 3.98 33.493 4.232 49.645-1.074 6.55-1.807 13.743-2.825 20.355-.926 6.727.508 12.882-.89 19.414-2.344 3.3-.604 6.248-.656 9.586-.656 2.227-1.42 2.227-1.42 4-3h2l2-5h2l2-5c4.389.665 7.981 2.188 12 4v2l2.166.354c2.973.678 5.424 1.687 8.186 2.974l3.082 1.426 3.191 1.496 6.227 2.89 3.091 1.44c2.999 1.393 5.998 2.785 9.002 4.166l2.571 1.185c5.184 2.23 10.246 4.069 15.921 4.069 3.31 0 5.324.429 8.438 1.375 4.897 1.427 9.699 2.22 14.75 2.813l2.097.253c9.846 1.081 19.383.323 29.215-.691l3.902-.402c9.262-1.014 18.136-2.65 27.166-4.88 3.33-.782 6.688-1.382 10.057-1.968l2.028-.358c4.443-.766 8.896-1.435 13.36-2.076l3.403-.503a535.71 535.71 0 0 1 6.682-.942c5.605-.832 9.34-1.464 13.465-5.621 1.548-1.104 3.11-2.19 4.687-3.25l2.325-1.578C2653 1127 2653 1127 2655 1127v-2c1.784-1.32 3.63-2.556 5.5-3.75 3.672-2.383 7.281-4.767 10.75-7.437 4.673-3.575 9.626-6.618 14.75-9.5l2-1.313v-2c4.385-3 4.385-3 7-3v-2a121.124 121.124 0 0 1 6.687-4.437l1.897-1.198a331.928 331.928 0 0 1 3.718-2.306c1.439-.897 2.834-1.864 4.218-2.844 5.589-2.737 11.814-.98 17.605.41l2.09.426c5.459 1.305 7.528 3.415 10.785 7.949l2.312 2.313c3.742 3.74 7.21 7.703 10.688 11.687l1.625 1.844c3.375 3.912 3.375 3.912 3.375 6.156h2c2.125 1.875 2.125 1.875 4 4v2h2l1 2 2.396-.032c3.639-.042 7.277-.067 10.916-.093l3.768-.05c9.044-.048 17.268.879 25.975 3.284 4.675 1.21 9.264 1.19 14.07 1.141 1.423-.01 1.423-.01 2.874-.018 13.24-.18 26.871-.549 39.548-4.638 3.904-.945 7.733-.763 11.726-.602 2.722.008 5.085-.368 7.727-.992v-2c1.76-1.462 3.586-2.844 5.437-4.187 1.103-.804 2.204-1.609 3.305-2.415l1.667-1.215c2.993-2.226 5.87-4.601 8.751-6.968C2909 1104 2909 1104 2912 1104v-2c7.175-3.587 14.055-4.07 22-4v-2c2.639-1.783 4.972-2.99 8-4a103.73 103.73 0 0 0 2-5c1.492-2.558 2.439-3.736 5.125-5 4.466 0 7.947 2.011 11.875 4l1.902.914c3.845 1.99 7.514 4.297 11.223 6.527 2.39 1.296 4.227 2.094 6.875 2.559v2l2.375.438C2986 1099 2986 1099 2988 1100c1.808.056 3.618.054 5.426.022 4.056-.035 8.065.02 12.113.278 13.695.859 26.825.322 40.45-1.25 3.196-.37 6.394-.71 9.593-1.048 2.059-.224 4.117-.45 6.176-.678l2.86-.31c4.711-.55 8.918-1.324 13.382-3.014 1.375-.407 2.754-.802 4.137-1.184l2.232-.617 2.318-.636 2.414-.668a1372.47 1372.47 0 0 1 15.555-4.204c2.32-.638 2.32-.638 4.375-1.539 15.137-6.258 31.284-.975 45.969 3.848a2030.468 2030.468 0 0 0 7.627 2.417l2.435.77 2.376.755c4.462 1.413 8.926 2.808 13.437 4.058l2.68.75c3.102.317 4.652-.388 7.445-1.75l2.953-1.41 3.297-1.652 1.827-.9a140.877 140.877 0 0 0 10.056-5.499c12.203-7.224 21.244-8.546 35.304-5.164 1.857.535 3.711 1.076 5.563 1.625 1.642.39 3.288.767 4.937 1.125l2.149.469c2.3.488 4.605.959 6.914 1.406v2l3.25-.187c3.68-.022 6.712.67 10.234 1.71 6.65 1.719 12.7 1.58 19.516 1.29 13.839-.292 26.338 2.033 39.714 5.375 4.137 1.022 8.293 1.948 12.453 2.87 6.382 1.418 12.747 2.895 19.083 4.505l2.746.671c1.63.416 3.257.84 4.872 1.31 11.468 3.346 21.162 3.473 32.991 2.108 6.641-.762 13.276-1.045 19.953-1.277l3.292-.12c7.271-.255 7.271-.255 9.896-.255l3.75-1.312c3.48-.849 4.005-.816 7.375.937 3.595 3.45 5.098 8.138 6.797 12.73 2.755 3.506 4.837 3.769 9.144 4.404 5.36.44 10.687.365 16.059.241 2.252-.051 4.505-.093 6.758-.125l2.98-.07c3.167.197 5.974.914 9.03 1.732 3.6.79 7.177.781 10.85.807l2.449.044c2.56.046 5.122.08 7.683.112 23.27.287 23.27.287 31.942 3.565 3.615 1.062 6.523 1.1 10.285.99 1.382-.029 2.764-.056 4.146-.082l2.168-.05c12.27-.264 23.625.148 35.588 3.202 2.834.716 5.317.95 8.238.875 3.614 0 5.23.311 8.32 2 6.215 2.965 10.73 2.204 17.25.488 7.376-1.723 14.393-1.864 21.938-1.738l3.785.016c18.386.155 18.386.155 20.465 2.234 1.866.291 3.745.508 5.625.688l3.102.324c3.281.152 3.281.152 6.289-.977 5.824-1.85 12.067-1.322 18.109-1.285l3.824-.023 3.684.007 3.34.007c3.068.263 5.217 1.064 8.027 2.259 2.869-.342 5.256-1.085 8-2 .802-1.874.802-1.874 1.187-4.062.16-.734.318-1.467.481-2.223L3751 1128c5.538-.37 5.538-.37 7.875 1.5l1.125 1.5v-2l2.824-.297c6.59-.773 12.714-1.703 19.051-3.765 10.757-3.48 10.757-3.48 15.125-2.938 1.923 1.083 3.42 2.238 5.004 3.773 3.677 2.26 7.867 2.556 12.06 1.908 2.801-.675 5.556-1.474 8.317-2.298 6.677-1.807 9.944-1.08 17.619-.383v1035H0V1117l4-2c1.111-1.9 1.111-1.9 2-4a67.489 67.489 0 0 1 2.875-3.625c.492-.59.985-1.18 1.492-1.79 1.755-1.703 3.403-2.61 5.633-3.585v-2h2v-2c4.613-1.753 8.978-2.473 13.875-2.75l2.16-.128c5.202-.24 9.03.397 13.965 1.878 3.088.298 6.168.496 9.266.656 2.728.343 4.337 1.074 6.734 2.344 3.167.167 3.167.167 6 0l.437-1.875C71 1096 71 1096 72 1094h2l.287-1.83c1.121-3.412 3.316-4.414 6.327-6.16 4.2-1.778 8.244-1.664 12.745-1.569l2.984.007c2.08.01 4.162.032 6.242.065 3.114.049 6.227.061 9.34.067 9.73.059 19.228.47 28.884 1.678 7.694.92 13.391.465 20.503-2.945l2.584-1.108c2.388-1.03 4.746-2.11 7.104-3.205 5.455-2.465 9.11-3.963 15-2l2.414.96c5.243 1.52 10.548 2.04 15.961 2.665l3.387.406c2.745.329 5.491.652 8.238.969v-2l2.09-.332c4.604-.777 8.93-1.582 13.285-3.293 14.978-5.205 35.9.723 49.242 8.197zM2885 1123l1 2z" fill="#733246"/></svg>