<svg xmlns="http://www.w3.org/2000/svg" width="3840" height="2160"><path d="M2173.965 1112.055C2177 1114 2177 1114 2178 1116h4v2l1.582.785c1.858.933 3.708 1.882 5.555 2.836 7.636 3.906 14.884 7.298 23.3 9.125 9.795 2.154 18.207 5.688 27.184 10.133 4.283 2.113 8.626 3.841 13.152 5.367 4.19 1.419 7.884 2.782 11.227 5.754v2h4v-2c8.608-3.913 18.177-3.242 27.438-3.25l2.218-.002c21.287.031 45.625 1.11 65.13 10.475 2.722 1.264 3.908 1.795 6.948 1.613L2372 1160l2.578-.648c4.26-1.159 8.461-2.34 12.61-3.852 13.374-4.505 27.995-5.511 41.931-7.146 2.68-.33 5.35-.7 8.022-1.092l2.348-.328c2.05-.288 4.1-.591 6.148-.895 3.843-.045 5.358.637 8.363 2.961l2.313 2.438c5.295 5.049 9.994 6.913 17.27 6.769 3.965-.34 7.627-1.41 11.417-2.582 5.965-1.781 11.906-3.347 18-4.625l2.676-.61c12.346-2.074 22.258 1.059 33.273 6.215 3.484 1.593 7.003 3.078 10.551 4.52l3.531 1.445c8.262 3.115 16.657 4.91 25.407 5.93l3.019.37c6.506.76 13.018 1.357 19.547 1.88l2.37.19c3.878.31 7.756.606 11.636.882 17.994 1.335 36.148 4.561 52.99 11.178 2.665.71 5.316 1.375 8 2 2.001.473 4.001.953 6 1.438l2.875.683a72.036 72.036 0 0 1 6.871 2.313c4.678 1.795 9.454 3.004 14.316 4.191l2.604.656c9.538 2.361 18.742 2.97 28.533 3.237 9.478.333 18.177 1.434 26.801 5.482 17.458 5.153 37.797-6.156 53.422-13.055 5.783-2.12 9.584-1.982 15.453-.132l3.727 1.124c1.913.599 3.825 1.2 5.734 1.813 7.768 2.283 14.597.647 22.164-1.625 27.664-8.245 27.664-8.245 37.922-2.852A83.059 83.059 0 0 1 2909 1193l2.875 2.25L2914 1197c11.223 7.482 32.56 2.24 45.125.2 12.704-2.04 25.075-2.452 37.911-2.177 6.794.115 12.444-.189 18.964-2.023 2.25.355 2.25.355 4 1.188l2 .882 2 .93c4.509 1.814 8.937 3.296 13.68 4.402 3.949 1.018 7.81 2.328 11.683 3.598 16.316 4.486 34.441 6.184 51.213 3.886 8.539-1.151 17.097-1.32 25.703-1.543l3.385-.097 3.045-.072c2.255.079 2.255.079 3.291-1.174 12.136-2.542 22.542-3.777 33.531 2.43 11.453 6.188 23.114 7.688 35.992 8.36 2.477.21 2.477.21 4.477 1.21a80.48 80.48 0 0 0 4.754.133l2.838.004 2.97-.012 2.983.012a356688001.54 356688001.54 0 0 0 5.445-.008c2.008.093 2.008.093 3.01-1.129 2.844-.447 5.676-.838 8.531-1.191l2.622-.332c1.839-.232 3.678-.461 5.518-.689 2.79-.346 5.58-.702 8.368-1.06a7491.6 7491.6 0 0 1 5.367-.67l2.501-.321c8.218-1 15.905-1.03 24.03.575 1.483.279 2.966.556 4.45.833l2.294.432c3.084.563 6.177 1.059 9.272 1.555 5.845.937 11.61 1.943 17.36 3.368 25.84 6.046 61.107 10.418 86.957 2.498 3.817-1.021 7.27-1.4 11.21-1.639 1.427-.101 2.853-.204 4.28-.308 2.206-.154 4.412-.3 6.62-.426 15.788-.932 27.224-6.724 39.37-16.938 2.706-2.029 4.992-2.765 8.25-3.687l2.078-.715c4.923-1.638 9.641-2.567 14.797-3.16 7.11-.848 13.842-2.482 20.76-4.302 6.13-1.586 12.12-2.662 18.42-3.366 3.147-.488 5.939-1.42 8.945-2.457l3.438-.438c3.186-.503 5.565-1.378 8.487-2.67 13.53-5.814 26.31-5.413 40.809-5.307 15.392.352 15.392.352 29.266-5.585h2v-2l1.906-.367c4.103-.803 8.177-1.625 12.219-2.696 3.956-.957 7.826-1.605 11.875-1.937l2.082-.2c4.655-.242 8.272.519 12.668 2.075 15.317 5.348 29.324 3.698 45.25 2.125v-2c3.064-1.532 5.617-1.23 9-1a87.756 87.756 0 0 1 5 3c2.13.806 4.285 1.488 6.457 2.176 3.728 1.208 7.39 2.59 11.063 3.957 4.007 1.401 7.408 2.024 11.668 2.054l2.667.043c2.604-.19 4.686-.584 7.189-1.223 5.157-1.168 10.125-1.33 15.397-1.343l2.931-.02c2.031-.01 4.062-.015 6.094-.015 3.092-.004 6.182-.04 9.274-.078 1.984-.006 3.968-.01 5.951-.012l2.773-.043c5.997.042 10.529 1.1 15.536 4.504 2.964 3.124 7 7.507 7 12l8-1v972H0V1159c19.187-2.398 19.187-2.398 26.125-2.813l2.375-.193c5.045-.301 8.05.34 12.5 3.006l2.813.938C55.4 1163.8 55.4 1163.8 57 1167c2.322.705 4.656 1.372 7 2l1 1c1.685.1 3.374.13 5.063.125l2.785.008c3.286-.076 3.286-.076 7.023-.762 4.4-.585 7.926.298 12.129 1.566 8.317 2.461 15.095 3.258 23-.937l1-2c8.08-.306 14.615-.429 22 3 10.097 3.954 21.907 2.146 32.5 1.125l2.497-.237c5.743-.608 11.782-1.278 17.003-3.888a117.21 117.21 0 0 1 5.777-.133l3.494-.004 3.667.012 3.654-.012 3.498.004 3.214.004C216 1168 216 1168 219 1169c2.823.097 5.615.14 8.438.125l2.314.012 2.244-.004 2.037-.004c1.973-.067 1.973-.067 3.85-.622 3.473-.832 7.019-.79 10.574-.894l2.488-.077c1.736-.052 3.472-.101 5.208-.149 2.64-.074 5.28-.165 7.92-.256 1.69-.049 3.38-.096 5.072-.143l2.37-.088c7.852-.178 13.924 1.767 20.485 6.1l2 2.688c2.163 2.5 3.475 3.193 6.766 3.46 3.933-.26 7.674-1.318 11.464-2.359 10.812-2.263 21.809-1.86 32.791-1.574 5.318.067 9.98-.027 15.065-1.656 8.387-2.59 17.27-2.325 25.976-2.621 3.533-.127 7.066-.263 10.598-.41l2.562-.107c4.873-.235 9.382-.851 14.132-1.982 7.482-1.242 15.365-.836 22.94-.895 2.337-.022 4.674-.061 7.01-.103h2.163c4.119-.082 6.602-.457 9.533-3.441 1.696-2.864 1.696-2.864 3.125-6.063 2.693-5.755 2.693-5.755 4.875-7.937 1.763.006 1.763.006 4.023.344 4.777.583 9.521.822 14.329.937l2.269.057c3.124.076 6.247.145 9.371.214 2.308.052 4.615.11 6.922.167l2.1.04c4.731.12 9.302.613 13.986 1.241 6.388.365 11.951.15 18-2v-2l1.66-.629c6.15-2.39 12.117-5.079 18.073-7.908C563.146 1136 563.146 1136 567 1136v-2l1.766-.664c5.922-2.29 11.551-4.932 17.18-7.871 2.946-1.413 5.89-2.555 8.957-3.673 2.114-.798 4.177-1.673 6.245-2.581 11.298-4.936 20.614-8.074 32.914-4.262 4.677 1.35 9.432 1.93 14.25 2.551l2.922.388a782.818 782.818 0 0 0 18.391 2.175c19.779 2.139 19.779 2.139 27.375 5.937l3.09 1.527c2.977 1.477 5.946 2.97 8.91 4.473v2l1.617.48c5.317 1.666 9.939 3.779 14.73 6.63 6.865 2.304 14.276-1.134 20.778-3.422 1.866-.64 3.734-1.276 5.602-1.91.902-.308 1.805-.615 2.735-.93 5.457-1.822 10.976-3.38 16.538-4.848l3.32-.906c11.903-3.04 21.006-2.422 32.68.906 4.016 1.08 8.04 2.133 12.063 3.188l3.123.826 2.974.779 2.676.704c2.118.578 2.118.578 4.164.503v2l3.53.409c4.035.504 7.991 1.245 11.978 2.048 8.08 1.563 16.168 2.523 24.367 3.23l2.173.196c12.002 1.061 23.886 1.245 35.926 1.09 11.22-.135 21.95.577 32.984 2.647 2.92.544 5.857.985 8.792 1.443 7.302 1.268 13.632 2.484 20.25 5.937 10.319 3.894 22.632.066 33.256-1.54 7.204-1.056 14.324-1.774 21.599-2.11 3.315-.369 6.039-1.22 9.145-2.412 8.014-2.921 16.848-3.601 24.875-.313 4.32 2.269 8.586 5 12.125 8.375v2l4 2v2l2.438.813L1082 1165l1 3 5 1v2c6.556 2.933 12.494 1.829 19.29.223 12.937-2.956 25.534-2.084 38.71-1.223v-2l2.063-.75c2.365-1.007 4.423-2.076 6.624-3.375C1158 1162 1158 1162 1160 1162v-2c6.62-6.06 16.533-7.974 25.25-8.375 7.049.705 13.113 3.486 19.5 6.402 3.665 1.585 7.446 2.769 11.25 3.973a227.49 227.49 0 0 1 22.29 8.45c6.808 2.996 13.534 5.53 20.675 7.612 3.683 1.138 7.189 2.582 10.746 4.06 3.371 1.294 6.77 2.075 10.289 2.878l3 1c3.257.193 6.512.317 9.773.426 3.854.686 5.215 2.135 8.227 4.574 7.482 3.919 15.124 3.097 23.313 2.563 9.294-.584 17.55-.349 26.687 1.437 24.001 2.656 51.235 1.687 72.957-9.984 4.937-2.455 10.49-5.016 16.043-5.016v-2l3.219-1.39c8.793-3.768 8.793-3.768 17.406-7.922 3.087-1.544 6.074-2.698 9.375-3.688 2.717 2.582 4.723 5.385 6.816 8.477 1.125 1.674 1.125 1.674 3.184 2.523v2c6.122.51 9.745-.95 15-4l1.992-1.156 1.883-1.094C1502 1170 1502 1170 1504 1170v-2l3.043-1.258c3.88-1.663 7.566-3.598 11.27-5.617l3.968-2.129 6.563-3.523c4.709-2.452 9.263-4.252 14.383-5.649 3.37-1.001 6.612-2.26 9.898-3.512 5.28-1.925 9.295-2.87 14.875-2.312v2l2.535-.111c3.139-.12 6.276-.208 9.416-.274 2.013-.052 4.025-.14 6.037-.23 10.997-.194 10.997-.194 15.809 3.924 3.131 3.26 5.186 6.657 7.203 10.691 2.002 3.713 3.863 7.124 7 10l1.438 2.438c4.993 4.993 12.512 6.242 19.312 7.437 6.16 1.26 10.495 5.186 14.625 9.75 3.193 2.89 6.285 3.997 10.32 5.383 2.404 1.035 3.606 2.035 5.305 3.992 3.314 3.645 6.03 5.728 11.07 6.19 2.48.08 4.949.086 7.43.06l2.716-.01c4.913-.06 9.568-.393 14.409-1.303 9.706-1.747 19.634-.575 29.352.688l2.454.312c1.55.204 3.099.425 4.644.666 3.495.472 5.628.53 8.882-.923 2.171-1.516 2.171-1.516 2.918-3.805 1.125-1.875 1.125-1.875 4.102-2.695 4.944-.58 9.003 1.249 13.523 3.07l2.473.95c2.352.91 4.691 1.847 7.027 2.8l1.992.808c4.18 1.737 7.895 3.872 11.7 6.301 3.173 1.225 5.054.788 8.308-.109 2.52-1.358 2.52-1.358 4.938-3.125 6.006-3.978 12.332-6.928 18.88-9.875a391.566 391.566 0 0 0 7.26-3.441l2.602-1.255c1.69-.816 3.377-1.636 5.062-2.46l2.336-1.121 2.075-1.008C1845 1189 1845 1189 1848 1189v-2l3.516-1.54c8.096-3.56 16.106-7.198 23.992-11.206 8.455-4.254 8.455-4.254 12.492-4.254v-2l3.36-1.242 4.39-1.633 2.21-.816 2.15-.801 1.967-.73c1.958-.743 1.958-.743 3.808-1.85 2.707-1.187 4.898-1.217 7.85-1.272l3.405-.085 3.61-.071c11.585-.31 11.585-.31 23.125-1.313l3.305-.394c3.463-.719 6.563-1.723 9.902-2.867 7.068-2.231 13.386-2.234 20.73-1.926 13.145.282 23.759-1.269 35.97-6.223 5.906-2.07 12.136-3.314 18.218-4.777 2.918-.703 5.834-1.412 8.75-2.125l2.021-.48c2.53-.62 4.898-1.229 7.233-2.399 2.92-1.457 6.024-2.072 9.184-2.809 11.93-2.893 23.687-5.917 34.812-11.187h2l1-3 3.438-.375L2104 1119l1-2a76.467 76.467 0 0 1 5.063-2.438c.919-.41 1.838-.822 2.785-1.246L2116 1112c.61-.26 1.22-.52 1.848-.79 4.952-2.006 9.598-2.855 14.902-3.335 28.628-2.838 28.628-2.838 41.215 4.18z" fill="#582E46"/></svg>