<svg xmlns="http://www.w3.org/2000/svg" width="3840" height="2160"><path d="M3675 1298c2.624 5.247 3.095 8.088 3 14h2c3.482 6.563 3.482 6.563 2.188 10.938L3681 1326h2l1-2c3.502 7.441 3.502 7.441 3 12-1.277 2.133-1.277 2.133-2.938 4.125-1.996 2.426-3.053 3.848-4.062 6.875 2.237-.836 2.237-.836 2.875-3.313 1.246-2.976 2.747-4.547 5.125-6.687 2.417 4.23 3.348 7.123 3 12h-2l-.742 2.074c-1.486 3.455-3.382 6.567-5.383 9.738l-1.129 1.811c-.912 1.461-1.828 2.92-2.746 4.377l1 1 1.355-2.414c3.195-5.6 6.283-10.827 10.645-15.586l3 4 .313-1.938.687-2.062 3-1 1 2h2l-1.5-1.188c-1.5-1.812-1.5-1.812-1.938-4.124.584-3.582 2.432-5.679 4.438-8.688.632-2.123.632-2.123 1.063-4.313L3705 1329l3-1c2.043 4.442 3.193 8.159 4 13l2 1c.625 2.563.625 2.563 1 5h-2v3l1.875.375C3717 1351 3717 1351 3719 1353c-.375 3.625-.375 3.625-1 7h3c3 6.625 3 6.625 3 10l2 1 1 5 2 1 1 3 3 1v-4l5-1v-2h2v-5l3 1-1-4 3-1-1-5h2l.438-2.313C3747 1355 3747 1355 3748 1352h2v3h2l.375 1.938.625 2.062 2 1 .438-2.438C3756 1355 3756 1355 3757 1354l1-3h2l-1-5h2l-1-3c.926-2.883.926-2.883 2.313-6.125l1.363-3.258C3765 1331 3765 1331 3767 1330c3.429 7.286 3.429 7.286 3 12h2l1 8h-2v2h5c1.892 7.787 2.943 14.605-1.031 21.89-.925 1.415-1.939 2.77-2.969 4.11 3.376 1.688 7.166 1.185 10.875 1.188l2.473.037 2.394.005 2.183.013c2.38-.279 4.005-1.066 6.075-2.243l-1-3c.996-2.043.996-2.043 2.438-4.188l1.433-2.167L3800 1366l1 2h2v2h2l2.438 3 2.562 3h3l-2.5-1.813-2.5-2.187v-3l-3-1c-2.375-2.063-2.375-2.063-4-5 .393-2.983 1.254-5.542 3-8 2.125-.734 2.125-.734 4-1l1.813 2.375c2.098 2.77 2.098 2.77 5.187 4.625l1 3 3 2a1049.33 1049.33 0 0 1 4 5l2 1c-1.37-3.161-1.99-3.993-5-6v-2l-2-1a89.752 89.752 0 0 1-3-3l-1.824-1.832c-4.994-5.308-4.994-5.308-5.863-9.418.835-3.344 1.969-4.672 4.687-6.75h2v2l4 2v2l3 1v3l4 2v-4h-2a381.113 381.113 0 0 1-5-6l-2-1-1-3-2-2 3-8c3.688.498 5.605 1.1 8 4v-2l-1.375-1.375c-1.808-1.808-2.752-3.223-3.625-5.625.375-2.25.375-2.25 1-4h2l1-5 2 1v-7h2l.375-2.375C3828 1305 3828 1305 3830 1303a291.26 291.26 0 0 1 2.5 4.188l1.406 2.355c1.201 2.698 1.301 4.538 1.094 7.457l3 1v3l2 1c.313 2.188.313 2.188 0 5a141.4 141.4 0 0 1-5 5v3l5-4c.136 2.398.234 4.788.313 7.188l.126 2.04c.098 4.006-.217 5.519-2.896 8.573L3835 1351l-1 3 6-4c.081 2.25.14 4.5.188 6.75l.105 3.797c-.305 3.591-.72 4.986-3.293 7.453h-2l-1 5 6-5v96c-22.7 0-45.398 0-68.097-.09l-13.863-.052-23.016-.087-27.65-.104a815804.771 815804.771 0 0 1-88.908-.336 2392291.777 2392291.777 0 0 1-149.035-.571c-36.611-.141-73.222-.28-109.833-.416a743995.761 743995.761 0 0 1-132.595-.505c-16.81-.065-33.622-.128-50.433-.189-16.957-.062-33.915-.127-50.872-.195-9.15-.037-18.3-.072-27.45-.104-42.423-.148-84.832-.517-127.248-1.351v-1a276.332 276.332 0 0 1 34.625-4.5l2.578-.18c66.362-4.612 132.918-6.116 199.419-6.994 12.272-.163 24.54-.333 36.807-.738l4.758-.15 3.59-.116c10.04-.303 20.068-.359 30.113-.326 22.505.066 45.008-.063 67.512-.215l2.484-.016c10.102-.068 20.204-.139 30.307-.21 8.728-.062 17.457-.122 26.186-.182 17.874-.122 35.747-.247 53.621-.373l-1.531-.988-1.969-1.324-1.969-1.301L3456 1440v-3c-3.666-1.147-7.132-1.141-10.957-1.165l-2.122-.017c-2.345-.018-4.691-.028-7.037-.04a8262.95 8262.95 0 0 0-18.758-.115c-3.817-.02-7.634-.043-11.45-.067-9.009-.055-18.017-.106-27.025-.154-9.286-.049-18.572-.105-27.858-.165-7.977-.051-15.953-.099-23.93-.143-4.761-.026-9.524-.054-14.286-.085-4.481-.03-8.963-.054-13.444-.074a2186.25 2186.25 0 0 1-4.925-.03 1877.66 1877.66 0 0 0-6.743-.034l-3.806-.021c-3.958.119-7.734.59-11.659 1.11-2.572.052-5.146.051-7.718.006l-2.211-.034c-1.579-.025-3.157-.052-4.735-.082-2.539-.047-5.078-.088-7.617-.126-3.631-.055-7.262-.113-10.893-.173-28.928-.472-57.802-.752-86.726.09l-2.926.083a784.39 784.39 0 0 0-5.291.171c-5.664.175-5.664.175-7.883-.935-2.949-.11-5.875-.16-8.825-.165l-2.803-.017c-3.12-.018-6.238-.028-9.358-.04a14376.474 14376.474 0 0 0-24.89-.115c-6.341-.025-12.682-.055-19.023-.085-11.338-.052-22.675-.099-34.012-.144-10.279-.04-20.558-.087-30.837-.137-11.93-.058-23.862-.113-35.792-.163-6.318-.026-12.635-.054-18.953-.085-5.942-.03-11.883-.054-17.825-.074-2.183-.008-4.366-.018-6.549-.03-2.976-.016-5.951-.026-8.927-.034l-2.629-.019c-3.997-.004-7.676.106-11.577 1.108v-2h-8v2c-13.117.023-26.234.04-39.35.052-6.091.005-12.182.012-18.272.023-5.874.011-11.749.017-17.623.02-2.244.002-4.489.005-6.733.01-3.137.008-6.273.009-9.41.009l-2.83.01-2.587-.004-2.249.003C2795 1435 2795 1435 2792 1434a176.77 176.77 0 0 0-7.42-.114h-2.32c-2.589 0-5.177.009-7.766.016l-5.605.005c-4.076.003-8.15.01-12.226.018-6.618.013-13.235.02-19.853.025-9.644.008-19.289.02-28.933.032a68752.956 68752.956 0 0 1-83.77.046c-52.791.008-105.582-.16-158.373-.415-23.745-.115-47.49-.222-71.234-.324l-2.059-.009c-95.506-.41-191.013-.617-286.52-.834l-11.011-.025c-107.497-.247-214.994-.463-322.492-.448h-2.919c-29.02.004-58.04.015-87.062.027-28.2.012-56.4.023-84.601.027h-2.539c-69.912.011-139.823-.153-209.735-.465l-3.754-.016c-62.158-.278-124.318-.601-186.474-1.241-20.544-.21-41.088-.36-61.633-.389-2.448-.004-4.896-.01-7.343-.017-3.417-.009-6.834-.011-10.25-.012l-2.995-.011c-5.651.007-11.258.235-16.895.623-7.94.54-15.853.643-23.81.63l-4.446.006c-3.973.004-7.946.003-11.92 0-4.192-.003-8.384 0-12.576 0-7.036.003-14.072 0-21.108-.005-8.09-.005-16.18-.003-24.27.002-6.992.005-13.985.005-20.977.003-4.156-.002-8.312-.002-12.468.001-3.91.003-7.822.001-11.733-.005-1.42 0-2.84 0-4.26.002-8.285.012-16.514-.221-24.777-.775-6.68-.446-13.333-.468-20.025-.42l-3.834.011c-4.652.014-9.303.037-13.955.061-15.387.078-30.708.156-46.059-1.01v-2l2.29.035c11.257.092 22.47-.46 33.71-1.035v-1c3.146-.029 6.292-.047 9.438-.063l2.72-.025 2.588-.01 2.396-.016C895 1425 895 1425 896 1426c1.53.042 3.061.01 4.59-.05l3.02-.116 3.327-.147 3.422-.14c15.224-.656 30.433-1.605 45.641-2.547-1.772-2.187-1.772-2.187-4.023-2.23l-2.352.043-2.336.019c-2.282.09-2.282.09-4.383.758-3.206.69-5.214-.952-7.906-2.59-2-3-2-3-1.625-6.188L934 1410h2v-5l2-1a160.565 160.565 0 0 0 3-7l4 1 1-4h4l-1-5 3-1v-4h2l-1-4 3-1-1-3 5-5c1.563 2.313 1.563 2.313 3 5l-1 3 3 1v2h-2l1 2 3 1v2h-2v2h4c4.077 5.382 6.884 12.25 7 19-1.076 3.144-2.45 6.065-4 9h-2v2l-8 4c6.097.025 12.195.043 18.292.055 2.067.005 4.133.012 6.2.02 13.848.058 27.526-.326 41.337-1.362a277.56 277.56 0 0 1 21.55-.702c12.61.042 25.204-.292 37.809-.632l7.436-.195a24521.1 24521.1 0 0 0 15.5-.41c6.534-.176 13.068-.348 19.602-.519 37.642-.973 37.642-.973 75.274-2.255l.621-2.957.816-3.855.81-3.833C1208 1403 1208 1403 1209 1400c2.063-.688 2.063-.688 4-1 .672 2.27 1.337 4.54 2 6.813l1.125 3.832C1217 1413 1217 1413 1217 1416c2.165.202 4.332.386 6.5.563l3.656.316c4.079.203 8.07-.058 12.142-.345 7.538-.501 15.071-.762 22.624-.919 2.266-.047 4.531-.098 6.797-.15 3.306-.076 6.612-.15 9.918-.224 33.65-.75 67.287-1.736 100.926-2.866l3.09-.104c12.45-.418 24.898-.841 37.347-1.271v-4h2l.313-1.688c.823-2.768 2.192-4.84 3.687-7.312 1.06-2.311 2.025-4.65 3-7l1-2h2v4h2c3 6.625 3 6.625 3 10h2l2 6 9 1c.794-1.561 1.585-3.124 2.375-4.688l1.336-2.636c1.33-2.657 1.33-2.657 2.328-5.446.961-2.23.961-2.23 2.961-3.23l-1-2h3l1-8h2l1-2v2h3v2l3-1 1-3 4 1 2-4h3l-1-6 4 1v-3l-2-1 4-3-.75-1.563c-.4-3.902 1.682-6.179 3.75-9.437h2v4h2l1 7 3 1-1 5h3c1 3 1 3 .063 5.188L1498 1380l1.75-.5c2.25-.5 2.25-.5 6.25-.5v-3h2l1-3 2 1v2l5-1-1-3c1.073-2.517 2.548-4.668 4-7 1.646 2.963 2.557 5.632 3 9l-1 2h4l1 2 3-3c2.667 2.49 4.557 4.634 6 8 2.588-3.056 2.588-3.056 3-7l2-1c.583-1.785.583-1.785 1-4a1503.21 1503.21 0 0 1 1.563-5.75l.816-2.984.621-2.266c2.834 3.523 3.882 6.607 5 11l1 3-1 2h3l-.5 2.375c-.562 2.507-.562 2.507-.5 4.625l2-1 1 3-1 2 3 1v4l4-3c2.282 4.253 3.768 8.338 5 13l1 3c3.51-.949 4.752-1.596 6.688-4.75A129.021 129.021 0 0 0 1576 1391l1-2h2v3h2l1-3h2l.313-3.125c.678-3.826 1.799-6.509 3.687-9.875h3l3-6 4 1 1-5 3 1-2-3v-4l3-1-1-5h3l-.625-2.313C1604 1349 1604 1349 1606 1346a70.134 70.134 0 0 0 1-4l1-3h3c2 5.75 2 5.75 2 8l2 1c.668 1.96.668 1.96 1.188 4.375l.542 2.398c.27 2.227.27 2.227-.73 5.227h3v6h2v5l2 1c.625 2.563.625 2.563 1 5h3c1.688 1.5 1.688 1.5 3 3l.55-2.3.763-3.013.738-2.988c.967-2.75 1.57-4.044 3.949-5.699h6v-3l4-2h-2l1-4 3 1v-2h-2c1.125-2.972 2.223-5.334 4-8l1 4h2v5l2 1 1 4 2 1 1 3 3 1-1-4h2l2-4c1.945 2.918 2.453 4.625 3 8l2.875-.063C1674 1367 1674 1367 1676 1368c.594 2.649.742 5.292 1 8h3l2 5 1.25-2.5 1.75-2.5h4v4h2v2c2.468.714 2.468.714 5 1v-2h-2l1-5h2l1-4h2v-4h4l-.813-2.375c-.277-5.357 2.206-9.06 4.813-13.625h2v3h2l.375 2.938.625 3.062 2 1v4h2c.934 3.01 1.044 3.867 0 7h3l-1 5 3-1c2 2 2 2 2 5h3l2-9h2v-4l5-1 .938-2.875C1738 1362 1738 1362 1739 1360h3v2l1.75-1.563c2.25-1.437 2.25-1.437 4.375-1.437 2.669 1.423 3.01 3.191 3.875 6l1-3 3-3 .875-2.438C1758 1354 1758 1354 1761 1352l.586 1.68.789 2.195.773 2.18c.79 2.127.79 2.127 2.852 3.945v3c4.25-2.125 5.427-3.596 7-8a104.024 104.024 0 0 1 4-5c1.5 1.188 1.5 1.188 3 3 .188 2.688.188 2.688 0 5l4 1-1 1 6 1-2-3 3-1v-5l3 1-1-6h2l.375-2.25c.58-2.551 1.362-4.477 2.625-6.75h2c4.592 9.41 4.592 9.41 4 14h3l2 6h2l2-4 3 1c1.623 3.76 2.24 6.92 2 11h2v3h2l2 2 3-3 2 6h2c1.05 3.15 1.101 5.388 1.063 8.688l-.028 3.011L1831 1390c1.333.028 2.667.047 4 .063l2.25.035c2.889-.059 2.889-.059 6.281-.567 5.634-.746 11.294-.886 16.969-1.093l3.36-.131c2.713-.106 5.426-.208 8.14-.307l.313-1.938.687-2.062 3-1v-3l2-1-1-3h2c.182-.568.364-1.137.55-1.723 1.59-4.884 3.355-9.587 5.45-14.277l2 1c.73 2.314 1.401 4.648 2 7h2v6l4 1c2.569-2.983 4.252-5.133 5-9a89.261 89.261 0 0 1 2-4l1-2h2l-.625-2.313C1904 1355 1904 1355 1906 1352h2l1 8h3c2.053 3.448 3.063 5.317 2.688 9.375L1914 1372l3-1c3.314 4.467 3.66 8.62 4 14 1.75.027 3.5.046 5.25.063l2.953.035c2.653.016 2.653.016 4.563-.587 2.945-.674 5.76-.714 8.78-.792l3.97-.112 2.095-.053c3.604-.091 7.207-.196 10.81-.3l2.193-.062c6.797-.196 13.592-.462 20.386-.755l3.089-.132c2.304-.1 4.607-.202 6.911-.305l-.298-1.74c-.768-5.272-.685-8.781 1.548-13.76l1.328-3.094C1996 1361 1996 1361 1999 1360c1.46 2.647 2 3.894 2 7 3.153-2.837 4.511-5.075 6-9a614.91 614.91 0 0 1 2.625-5.813l1.352-2.957L2012 1347c3 1 3 1 4.168 3.215l1.02 2.723 1.042 2.714c.77 2.348.77 2.348.77 4.348h-2l1 2 3 1c1.688 3.563 1.688 3.563 3 7l3-2 1 4h3l.434-1.734L2034 1360c3.75-1.125 3.75-1.125 6 0 .727 1.979 1.398 3.98 2 6 3.278-.752 3.278-.752 5-4 .39-1.99.732-3.99 1-6h2v-3c3 1 3 1 3.95 2.707.243.695.486 1.39.738 2.105.25.688.502 1.375.761 2.083.551 2.105.551 2.105.551 6.105h4l4-10c3.445 2.296 3.494 2.862 4.438 6.688.92 3.391 1.925 6.243 3.75 9.25C2074 1375 2074 1375 2074 1378a6778.2 6778.2 0 0 0 15.753-.372c1.788-.044 3.576-.085 5.363-.125 2.565-.058 5.129-.122 7.693-.187l2.436-.05c3.682.242 3.682.242 6.755-1.266a168.29 168.29 0 0 1 7.316-.098l2.216.005c2.343.005 4.687.018 7.03.03A4809.622 4809.622 0 0 1 2145 1376l-1-2c-.071-2.374-.084-4.75-.063-7.125l.028-3.883.035-2.992h2c1.158-2.947 1.158-2.947 1-6l2-2c.352-2.33.683-4.664 1-7 1.063-2.938 1.063-2.938 2-5 3 1 3 1 4.25 2.75.926 2.777.523 4.466-.25 7.25l2 1v2h2l1 7 2.313.625c3.51 1.796 4.213 3.806 5.687 7.375h2v-2h3l-.625-1.875L2173 1362l2-2 1 1-1-4 3-2c.369-1.66.696-3.328 1-5a133.101 133.101 0 0 1 3-6l.867 1.746a261.548 261.548 0 0 0 2.203 4.29l1.055 2.026 1.07 2.036C2188 1356 2188 1356 2188 1359l3 1c1.168 1.777 1.168 1.777 2.188 3.938l1.042 2.152c.77 1.91.77 1.91.77 3.91h2c1.129-3.311 2.213-6.59 3-10h2l-.125-2.313C2202 1355 2202 1355 2204 1352h2v4h2l1 3 2-1v-4h2l-1-3c.938-3.188.938-3.188 2-6h2v-6h2v6h2l2 10 3-1a90.511 90.511 0 0 0 3.125-7.813l.8-2.197c1.193-3.307 2.26-6.568 3.075-9.99h2l-1-3 3-1-.563-1.625c-.551-2.995-.043-5.412.563-8.375 3.234 4.851 4.124 8.191 4 14 .45 3.82 2.187 5.46 5 8l1.375-2.5 1.625-2.5h2l.148-2.16c.431-5.52.927-10.63 2.852-15.84l2-1c.75 3.663 1.238 6.424 0 10h2l3 8 .813-1.938C2262 1332 2262 1332 2265 1331l2 5h2l.438-1.75.562-2.25.5-2.125c.5-1.875.5-1.875 1.5-3.875h2l-.563-1.875C2273 1322 2273 1322 2274 1320h5l2 8h2l.438 2.375c.44 2.59.44 2.59 1.562 4.625v3h2l1 4h2v-5l2-1v-4l1-2v-3h2l.375-3.313C2296 1320 2296 1320 2298 1317c2.294 3.44 3 4.723 3 9h2l.367-1.898.508-2.477.492-2.46C2305 1317 2305 1317 2307 1315c.869 2.558 1.72 5.12 2.563 7.688l.748 2.185c1.32 4.07 2.079 6.907.689 11.127h2v7l3 1-1 4c2.063-1.107 2.063-1.107 4-3 .81-3.102.81-3.102 1-6l3 1-1-6h2l.375-2.75c.546-2.84 1.198-4.776 2.625-7.25h2l.332 1.715.48 2.223.458 2.214.73 1.848 3 1 1-3h2l1 6 5 1-1-3c1.438-2.188 1.438-2.188 3-4 2 3 2 3 2 6h2l2 7h3l-1-4 3-1-.582-1.723c-.5-2.726-.051-4.128.894-6.715.282-.78.563-1.562.852-2.367.918-2.41 1.838-4.816 2.836-7.195 1.5 1.188 1.5 1.188 3 3 .188 2.688.188 2.688 0 5h2l.805 2.809 1.07 3.629 1.055 3.62c.73 3.059.73 3.059 3.07 3.942l1-5 2 1v-6h2v-6l1 2v-4l1-3h2l-1-3c.75-2.625.75-2.625 2-5l3-1 .406 1.691c.847 3.293 1.871 6.526 2.875 9.774.719 2.535.719 2.535 1.188 5.289L2389 1331l2 1c.563 2.313.563 2.313 1 5l.563 2.188C2393 1341 2393 1341 2393 1343l4 2 5-9h2l1 3 3-2 3 2-1-7h3l-2-4 1.363-1.176c1.973-2.199 2.786-4.254 3.825-7.012l1.042-2.73.77-2.082h2c2.456 3.536 4 6.67 4 11 .833 2.167.833 2.167 3 3l-2 3 4-1v2h3l1-7h3l3 7h1v-5h2v-5l4-1-1-2c-.278-4.826.244-8.5 2-13 4.087 6.13 4.087 6.13 3.688 10.125C2450 1320 2450 1320 2449 1322h2v-2h2v9l2 1-1 6h3c1.688 2 1.688 2 3 4l-.59-1.734c-.49-2.712-.023-3.996 1.028-6.516l.87-2.14.692-1.61h2c3 9 3 9 2.063 11.188L2465 1341l1-1h2l1 3c2.015.733 2.015.733 4 1l-.625-2.75c-.388-3.36-.18-4.49 1.625-7.25h2l-1-6h2l.375-3.438.625-3.562 2-1c2.76 6.362 3.632 12.092 4 19h4v-3h2l-1-3 2-3c.633-2.113.633-2.113 1-4l3 1 .367 2.047.508 2.703.492 2.672c.608 2.475 1.311 4.404 2.633 6.578l2 1 .375-2.75c.546-2.84 1.198-4.776 2.625-7.25h2c1.004 2.41 1.933 4.697 2.5 7.25l.5 1.75 2 1 1-6h2v-5h2l.367-2.195c.882-5.09 1.797-9.954 3.633-14.805 2 1 2 1 2.781 3.074l.719 2.613.777 2.739.723 2.574c1.263 4.122 1.263 4.122 3.188 7.938 1.24 3.148.437 5.811-.188 9.062l3-1v5l3 1c1.188 2.063 1.188 2.063 2 4 .648-1.27 1.294-2.54 1.938-3.813l1.09-2.144c1.08-2.161 1.08-2.161 1.972-5.043h2c1.316 3.62 2 6.096 2 10h2v4h2v3h2l5-16h2l1-6h2l.148-2.336.227-3.039.21-3.023C2562 1324 2562 1324 2564 1322a78.732 78.732 0 0 0 1.625-5.125c.26-.91.52-1.82.79-2.758L2567 1312h2l.55 1.906c1.236 4.207 2.503 8.337 4.137 12.407 1.158 3.25 1.63 5.302 1.313 8.687h4l.371-1.61c.77-2.927 1.725-5.771 2.691-8.64l1.098-3.266.84-2.484c2.502 2.193 3.5 3.828 4.25 7.063l.516 2.097c.234 1.84.234 1.84-.766 3.84h3l.148 1.863.227 2.45c.07.8.14 1.6.21 2.425.753 4.11 3.52 6.464 6.415 9.262l.375-3.313C2599 1341 2599 1341 2601 1338h2c.982 2.916 1.96 5.833 2.938 8.75l.841 2.5.81 2.422.747 2.222c1.573 4.987 3.006 10.093.77 15.114-.975 1.7-2.034 3.351-3.106 4.992l4 1a227.262 227.262 0 0 0 12-28h2l3 9h2l.375-2.938c.624-4.41 1.612-8.727 2.625-13.062h2v-4h2l-1-7 4-1 1 5 .57 2.79.555 2.835.57 2.852C2642 1344 2642 1344 2641 1347l3 1v4h4v-4h3l-1-3 1-2h2v-4h3l-1-3c1.313-2.688 1.313-2.688 3-5h2c3.38 3.482 4.677 6.155 5 11l-1 2h4c2.175 2.874 3 4.364 3 8l3 2-1 3 3 1c1.287 2.573 1.168 4.502 1.188 7.375l.042 2.898c-.233 2.757-.82 4.376-2.23 6.727 3.142.599 6.045 1 9.25 1 2.75 0 2.75 0 4.75 1 1.448.083 2.9.107 4.352.098l2.578-.01 2.695-.025 2.719-.014c2.219-.012 4.437-.028 6.656-.049v-2l-2.813-1.813c-3.853-2.644-5.528-4.612-6.69-9.156-1.022-6.104.043-11.38 2.503-17.031l1.547-1.98c1.716-2.385 2.007-4.135 2.453-7.02.431-1.757.89-3.507 1.375-5.25.235-.871.47-1.743.71-2.64l.915-2.11 3-1c3.424 6.76 5.626 12.4 6 20h2l.875 2.438c.858 2.695.858 2.695 3.125 3.562l.438-1.875C2724 1349 2724 1349 2725 1347v-3h2v-5l5-1 1 3c2.233-.833 2.233-.833 2.852-3.285l.773-2.777c.26-.92.52-1.839.79-2.786L2738 1330h2l1-2c2.642 4.564 3.696 8.795 4.57 13.926.228 2.055.228 2.055 1.43 3.074.04 1.666.043 3.334 0 5h2v-3h2l1-6h2v-5h3l-.75-1.938c-.374-4.582 1.549-8.102 3.75-12.062l2-2c1.604 3.508 2.22 6.144 2 10l2 1-1 5 3 1-.5 1.938c-.54 1.87-.54 1.87-.5 3.062h3c3 6.625 3 6.625 3 10l6-1v-4c.656-2.14.656-2.14 1.5-4.25l.844-2.14.656-1.61h3c2 3 2 3 2 7h2l2 10h2v4h2l.25 1.875c.563 2.31.563 2.31 2.813 3.375l1.937.75.313-2.313c.73-2.858 1.457-3.844 3.687-5.687l3 1 1-2h3l-1-4 3-1-1-5 4-1h-2l1-2.25c1.228-2.889 1.228-2.889 1-6.75a100.26 100.26 0 0 1 3-6h2c3.077 5.415 3.077 5.415 2.688 8.375L2823 1341h2c.625 1.813.625 1.813 1 4l-2 3 3-1v5h3v5h2v5l3 1c1.598 6.394 1.281 12.593 0 19l7 1-1.5-2.563c-1.757-4.027-2.081-6.077-1.5-10.437 1.102-2.579 2.357-5.02 3.688-7.488 1.78-3.408 3.037-6.888 4.312-10.512h3c1.257 2.906 2 4.796 2 8h2l1 8h2c2.472 4.945.497 10.013-1 15l3.98.184 5.207.254 2.62.119c4.152.206 8.138.444 12.193 1.443l-1.438-3.313c-2.194-5.055-2.5-8.158-1.562-13.687h3l-1-3c.59-1.778.59-1.778 1.582-3.723l1.076-2.13 1.155-2.21 1.119-2.22c2.773-5.422 2.773-5.422 5.068-7.717.838 1.79 1.67 3.582 2.5 5.375l1.406 3.023C2894 1358 2894 1358 2894 1360h2l1 8 3 1 1 5h2l1-3c3.076 2.573 4.176 5.436 5.625 9.125 1.243 3.708 1.243 3.708 3.375 6.875 2.413.197 4.805.332 7.223.43l4.702.216 2.533.112c15.257.684 30.499 1.555 45.73 2.68l2.559.188c10.252.767 20.447 1.642 30.564 3.548 4.508.826 8.19.641 12.689-.174 3 0 3 0 5 1v2l2.473.078c9.273.444 18.202 1.782 27.316 3.55 5.853 1.101 11.254 1.562 17.211 1.372l.372-1.939c.895-4.572 1.885-8.196 4.628-12.061 2.837 3.3 3.898 6.5 5.188 10.625 1.492 4.39 1.492 4.39 4.562 7.633 2.136.542 4.047.696 6.25.742 1.626.16 3.25.327 4.875.5l2.242.156c3.45.412 6.809 1.097 10.211 1.796 7.016 1.44 14.06 2.74 21.099 4.063 1.57.296 3.14.594 4.709.896 10.134 1.946 20.327 3.395 30.552 4.776l2.01.275c1.917.261 3.834.515 5.751.768l3.386.45c3.17.387 3.17.387 6.387.243C3186 1421 3186 1421 3189 1423c2.745.242 2.745.242 5.688.125l3.011-.055 2.301-.07v2h16v2l3.219-.254 4.281-.309 2.11-.17c4.208-.292 7.96-.06 12.153.549 4.79.394 9.59-.246 14.362-.691 2.225-.195 4.45-.389 6.676-.582l3.229-.288c4.794-.412 9.593-.714 14.396-1.009 2.3-.22 4.346-.667 6.574-1.246 1.268.03 1.268.03 2.563.063 2.7.147 2.7.147 5.437-2.063 2.333-.044 4.667-.038 7 0 2.247-.29 4.487-.633 6.719-1.023l3.828-.657 3.953-.695c9.207-1.603 18.39-3.058 27.666-4.182 2.729-.141 2.729-.141 3.834-1.443 2.519-.52 5.03-.993 7.563-1.438 6.381-1.135 6.381-1.135 12.687-2.624 3.068-.767 6.032-1.339 9.148-1.836 6.685-1.097 13.33-2.367 19.977-3.665l6.773-1.316 2.975-.58A375.464 375.464 0 0 1 3412 1400l-1-1.563c-1.612-3.928-1.78-7.503-.172-11.492.693-1.37 1.41-2.73 2.149-4.078 1.215-2.217 2.136-4.502 3.023-6.867 1.797.152 1.797.152 4 1 1.703 2.441 1.703 2.441 3.25 5.563l1.578 3.066c1.422 4.091 1.378 7.067 1.172 11.371l1.725-.351c2.612-.531 5.225-1.059 7.838-1.586l2.712-.553c4.897-.987 9.771-1.864 14.725-2.51l-.688-2.125c-.407-3.752.824-5.67 2.688-8.875 3.984 2.163 6.89 4.712 10 8v-2l-3-1c-3.77-3.52-3.77-3.52-5-6 .688-3.875.688-3.875 2-7l1.938-.375L3463 1372l1-2h-2c.37-2.741.686-4.586 2.375-6.813C3466 1362 3466 1362 3469 1362l-2-3c.321-2.634.814-4.627 2-7h2l1-2 2 3 2-1-1.563-1.188c-1.437-1.812-1.437-1.812-1.25-4.25.75-2.36 1.68-4.368 2.813-6.562l.438-1.875c.775-2.928 2.163-5.45 3.562-8.125h3c2.603 3.374 3.363 5.77 3 10h2c2.54 3.418 3.364 5.758 3 10h2v3h2c1.23 5.415 1.23 5.415.063 8.375L3494 1363l5-2c2.378 4.492 2.378 4.492 3 7-1.313 2.938-1.313 2.938-3 5h1l2-2c3.013 1.507 3.61 4.032 5 7l-2 3h4v3c4.615 1.042 4.615 1.042 9 0a82.667 82.667 0 0 1 4.297-.465l2.638-.233 2.815-.24c8.469-.758 16.849-1.735 25.25-3.062v-2h3v-2h-2v-4h2l-2-5 5 1 1-3 2 1-.5-3.188c-.396-3.017-.592-5.783-.5-8.812h3l3-1v-10l4 1 1-3 1.137 1.39c3.038 3.643 6.017 6.782 9.863 9.61l-1-4h-2c-4-4.47-4-4.47-4-7h-2v-2h-2l1-5h2l2-5 5 2-1.438-1.25c-1.861-2.085-2.407-2.951-2.562-5.75 2.239-6.493 2.239-6.493 6-9 .355-1.996.686-3.997 1-6 1.563-2.875 1.563-2.875 3-5l3 1c1.808 4.092 2.212 7.557 2 12l2-1 .375 1.938.625 2.062 2 1c.95 2.927 1.232 4.428.063 7.313L3597 1330h-2v2h-2l1 3 4-5c2.375.188 2.375.188 5 1 1.86 3.277 2 5.166 2 9h-2v2h-2v2a282.478 282.478 0 0 1-5 5l-2 3c3.503-1.168 4.02-2.101 6.063-5.063 1.535-2.222 1.535-2.222 2.937-3.937h2l2-2c2.875 6.625 2.875 6.625 4 10l-2.375 2.25c-2.631 2.487-2.631 2.487-3.75 5L3604 1360l-3 1-1 3h-2v2c-2 1.625-2 1.625-4 3l1 1h2v-2h2l1-3h2v-2l2.375-1.875c2.694-1.874 2.694-1.874 3.688-4.313.937-1.812.937-1.812 3.062-2.562l1.875-.25v3h2l2 7h-2l-.75 1.688c-1.48 2.736-3.185 4.989-5.25 7.312h-2v3c2.54-2.47 4.926-4.906 7.125-7.688C3616 1366 3616 1366 3619 1364c.685-2.123.685-2.123 1-4.5.375-2.406.375-2.406 1-4.5l3-2 2 2-2-3c.532-6.064.532-6.064 2-9h2l-.625-1.625c-.506-3.208.471-5.388 1.625-8.375h2l5 12c2.084-2.084 2.878-5.318 4-8 2.56 3.004 3.238 5.188 4 9l1.563 1.938c1.922 2.757 1.583 4.774 1.437 8.062l1 1c.707 1.344 1.392 2.7 2.063 4.063l1.097 2.222.84 1.715 1-2h2v2h2v-3l-2-1c.438-4.557.85-7.577 4-11l1 3 2 1 3 6 2 1-1.313-2.117-1.687-2.758-1.688-2.742C3661 1351 3661 1351 3661 1349l-2-1c.468-4.056.88-7.466 3-11h2l-1-3c.688-3.563.688-3.563 2-7 2.125-1.438 2.125-1.438 4-2l-1.125-2.063c-1.166-3.914-.32-6.181 1.125-9.937l2-1c.617-2.48.617-2.48 1-5.375.546-3.696.89-5.46 3-8.625zm-6 28 1 4 2-1-3-3zm9 2v2l2-1-2-1zm-1107 2 1 2zm-320 1 1 2zm162 1v2l2-1-2-1zm1169 0 2 4 1-3-3-1zm-1225 1v3l2-1-2-2zm6 0 1 2zm1301 4-1 2h2l-1-2zm-1101 1 1 2zm144 0v2l2-1-2-1zm-296 1 2 2v-2h-2zm1254 0c1.277 4.993 3.173 7.576 7 11-1.22-4.033-2.56-7.543-5-11h-2zm-1342 1 1 2zm102 0-1 2h2l-1-2zm134 0 1 2zm-146 1v2h2v-2h-2zm10 1-1 2h2l-1-2zm-50 2 1 2zm6 0 1 2zm29 0 1 3zm336 1 1 2zm-276 1v3zm94 0 1 2zm30 0 1 2zm-985 1 1 2zm1060 0 1 2zm1012 0 1 2zm-1088 1 1 2zm-140 2 1 2zm93 0 1 2zm344 0 1 2zm790 0 1 2zm-1030 2 1 2zm840 0-1 2h2l-1-2zm-943 1v2l2-1-2-1zm1022 0v2h2v-2h-2zm25 0 1 2zm-869 1 2 2v-2h-2zm762 0 2 2v-2h-2zm-1301 1 1 2zm520 0 1 2zm930 0 1 2zm-64 1v2h2v-2h-2zm203 0 1 2zm-200 3c2.388 4.96 4.8 9.342 9 13h2l1 2c-.501-4.385-1.983-6.8-5-10h-2l-.813-1.938c-1.074-2.393-1.074-2.393-4.187-3.062zm71 0-1 2h2l-1-2zm-831 1 1 3 1-3h-2zm882 0c2.163 3.984 4.712 6.89 8 10 0-3.544-.61-4.103-2.875-6.688l-1.617-1.886c-1.404-1.655-1.404-1.655-3.508-1.426zm-28 1 1 3 1-3h-2zm50-1-2 2-2.125 2c-2.103 1.786-2.103 1.786-1.875 4h2v-2l1.875-.813c2.425-1.143 2.425-1.143 4.125-4.187l-2-1zm-2104 2 1 2 1-2h-2zm1211 0 1 2 1-2h-2zm-172 1 2 2v-2h-2zm969 0c0 4.033 1.609 5.835 4 9h2c-1.312-3.937-2.92-6.227-6-9zm-2009 1 1 2zm178 0 1 4 1-3-2-1zm1680 0c1.363 2.04 1.363 2.04 3 4h2l-1-3c-2.015-.733-2.015-.733-4-1zm199 0 1 3 1-3h-2zm-841 1 1 2zm662 0-5 6h3c1.705-1.94 1.705-1.94 3-4l-1-2zm167 0v3h2v3l2-1-2-5h-2zm-2040 1 1 2zm40 0 1 2zm57 0 1 2zm198 0 1 2zm704 0 1 2zm1055 0 1 4zm-24.125 2.875c-2.096 1.903-2.096 1.903-1.875 4.125h2a125.024 125.024 0 0 0 4-6c-2.222-.22-2.222-.22-4.125 1.875zM2586 1371v4l3.813.563 2.144.316c2.246.26 2.246.26 5.043-.879-1.398-3.545-1.398-3.545-3-7-3.08 0-5.311 1.597-8 3zm889-3 2 2v-2h-2zm235 0 1 2zm-1999 1 1 2zm1854 0v2l2-1-2-1zm-1951 1-1 3h2l-1-3zm1201 0 1 2zm906 0v2h2v-2h-2zm-1141 1v4h4v-3l-4-1zm1081 0 1 2 1-2h-2zm-197 1c.579 3.288 1.548 4.937 3.938 7.25l1.59 1.578c1.42 1.38 1.42 1.38 3.472 1.172l1 3h3v-2h-2l-1-3h-2l-.75-1.75c-1.433-2.58-3.034-4.311-5.25-6.25h-2zm255 1v2h-2l1 2 2-1-1-3zm-2005 1-1 2h2l-1-2zm166 0 1 2zm17 0v2l2-1-2-1zm1766 0v2l2-1-2-1zm-1959 1 1 2zm1008 0v3l2-1v-2h-2zm783 0 1 2 1-2h-2zm-1954 1 1 2zm1952 0v3h2l-1-3h-1zm-2 3v2h-2l1 3c1.542-1.375 1.542-1.375 3-3v-2h-2zm-1995 1v2h2v-2h-2zm117 0 1 2zm-74 1 1 2zm164 0 1 2zm11 1-1 2h2l-1-2zm1789 0-2 3 3 1-1-4zm-606 1-1 2h2l-1-2zm-1419 1 2 2v-2h-2zm2008 0-1 3 3-1-2-2zm-1767 1-1 2h2l-1-2zm-19 2 2 2v-2h-2zm-219 1v2h2v-2h-2zm235 0-1 2h2l-1-2zm-13 1 1 2zm1762 0 2 2v-2h-2zm-1970 1 1 2zm-540 2 1 2zm10 11-1 2h2l-1-2zm-13 1 1 2zm2555 35-3 1c-2.209 1.875-2.209 1.875-4 4v2h74v-2c-9.41-9.387-22.657-8.11-34.957-8.12a640.7 640.7 0 0 1-10.88-.13 2525 2525 0 0 0-6.917-.07l-3.286-.047-3.036.007-2.67-.01c-2.74.45-3.44 1.345-5.254 3.37zm101.86 1.68-2.11 1.195-2.14 1.18-1.61.945 1 2h12c-.544-3.949-.544-3.949-2.797-5.367-2.199-.852-2.199-.852-4.344.047zm49.14-.68a105.022 105.022 0 0 0-4 5c1.008 1.233 1.008 1.233 3.066 1.098l2.497-.035 2.503-.028L3664 1446v-3c-2.619-2.427-2.619-2.427-6-3zm64 4v2h94c-4.288-4.288-6.802-5.241-12.828-5.319l-3.565-.06-3.857-.035c-1.336-.019-2.673-.038-4.01-.059-3.53-.051-7.06-.09-10.59-.128-3.516-.04-7.032-.09-10.548-.141-5.408-.076-10.815-.135-16.223-.18-4.557-.04-9.109-.115-13.664-.241l-2.808-.057a246.911 246.911 0 0 1-4.986-.15c-4.929-.075-7.52.751-10.921 4.37zm-36-1-1 3h6l-1-3h-4z" fill="#3F2A49"/><path d="M3675 1298c2.624 5.247 3.095 8.088 3 14h2c3.482 6.563 3.482 6.563 2.188 10.938L3681 1326h2l1-2c3.502 7.441 3.502 7.441 3 12-1.277 2.133-1.277 2.133-2.938 4.125-1.996 2.426-3.053 3.848-4.062 6.875 2.237-.836 2.237-.836 2.875-3.313 1.246-2.976 2.747-4.547 5.125-6.687 2.417 4.23 3.348 7.123 3 12h-2l-.742 2.074c-1.486 3.455-3.382 6.567-5.383 9.738l-1.129 1.811c-.912 1.461-1.828 2.92-2.746 4.377l1 1 1.355-2.414c3.195-5.6 6.283-10.827 10.645-15.586l3 4 .313-1.938.687-2.062 3-1 1 2h2l-1.5-1.188c-1.5-1.812-1.5-1.812-1.938-4.124.584-3.582 2.432-5.679 4.438-8.688.632-2.123.632-2.123 1.063-4.313L3705 1329l3-1c2.043 4.442 3.193 8.159 4 13l2 1c.625 2.563.625 2.563 1 5h-2v3l1.875.375C3717 1351 3717 1351 3719 1353c-.375 3.625-.375 3.625-1 7h3c3 6.625 3 6.625 3 10l2 1 1 5 2 1 1 3 3 1v-4l5-1v-2h2v-5l3 1-1-4 3-1-1-5h2l.438-2.313C3747 1355 3747 1355 3748 1352h2v3h2l.375 1.938.625 2.062 2 1 .438-2.438C3756 1355 3756 1355 3757 1354l1-3h2l-1-5h2l-1-3c.926-2.883.926-2.883 2.313-6.125l1.363-3.258C3765 1331 3765 1331 3767 1330c3.429 7.286 3.429 7.286 3 12h2l1 8h-2v2h5c1.892 7.787 2.943 14.605-1.031 21.89-.925 1.415-1.939 2.77-2.969 4.11 3.376 1.688 7.166 1.185 10.875 1.188l2.473.037 2.394.005 2.183.013c2.38-.279 4.005-1.066 6.075-2.243l-1-3c.996-2.043.996-2.043 2.438-4.188l1.433-2.167L3800 1366l1 2h2v2h2l2.438 3 2.562 3h3l-2.5-1.813-2.5-2.187v-3l-3-1c-2.375-2.063-2.375-2.063-4-5 .393-2.983 1.254-5.542 3-8 2.125-.734 2.125-.734 4-1l1.813 2.375c2.098 2.77 2.098 2.77 5.187 4.625l1 3 3 2a1049.33 1049.33 0 0 1 4 5l2 1c-1.37-3.161-1.99-3.993-5-6v-2l-2-1a89.752 89.752 0 0 1-3-3l-1.824-1.832c-4.994-5.308-4.994-5.308-5.863-9.418.835-3.344 1.969-4.672 4.687-6.75h2v2l4 2v2l3 1v3l4 2v-4h-2a381.113 381.113 0 0 1-5-6l-2-1-1-3-2-2 3-8c3.688.498 5.605 1.1 8 4v-2l-1.375-1.375c-1.808-1.808-2.752-3.223-3.625-5.625.375-2.25.375-2.25 1-4h2l1-5 2 1v-7h2l.375-2.375C3828 1305 3828 1305 3830 1303a291.26 291.26 0 0 1 2.5 4.188l1.406 2.355c1.201 2.698 1.301 4.538 1.094 7.457l3 1v3l2 1c.313 2.188.313 2.188 0 5a141.4 141.4 0 0 1-5 5v3l5-4c.136 2.398.234 4.788.313 7.188l.126 2.04c.098 4.006-.217 5.519-2.896 8.573L3835 1351l-1 3 6-4c.081 2.25.14 4.5.188 6.75l.105 3.797c-.305 3.591-.72 4.986-3.293 7.453h-2l-1 5 6-5v96c-22.7 0-45.398 0-68.097-.09l-13.863-.052-23.016-.087-27.65-.104a815804.771 815804.771 0 0 1-88.908-.336 2392291.777 2392291.777 0 0 1-149.035-.571c-36.611-.141-73.222-.28-109.833-.416a743995.761 743995.761 0 0 1-132.595-.505c-16.81-.065-33.622-.128-50.433-.189-16.957-.062-33.915-.127-50.872-.195-9.15-.037-18.3-.072-27.45-.104-42.423-.148-84.832-.517-127.248-1.351v-1a276.332 276.332 0 0 1 34.625-4.5l2.578-.18c66.362-4.612 132.918-6.116 199.419-6.994 12.272-.163 24.54-.333 36.807-.738l4.758-.15 3.59-.116c10.04-.303 20.068-.359 30.113-.326 22.505.066 45.008-.063 67.512-.215l2.484-.016c10.102-.068 20.204-.139 30.307-.21 8.728-.062 17.457-.122 26.186-.182 17.874-.122 35.747-.247 53.621-.373l-1.531-.988-1.969-1.324-1.969-1.301L3456 1440v-3l-3.313-.875C3449 1435 3449 1435 3446 1433c-.293-2.164-.293-2.164-.188-4.625l.083-2.477.105-1.898h-2l-1 3c-2.628-3.845-1.849-6.866-1.125-11.313.625-3.91 1.126-7.532 1.102-11.496.027-3.686 1.015-5.18 3.023-8.191v-3l7-1-.688-2.125c-.407-3.752.824-5.67 2.688-8.875 3.984 2.163 6.89 4.712 10 8v-2l-3-1c-3.77-3.52-3.77-3.52-5-6 .688-3.875.688-3.875 2-7l1.938-.375L3463 1372l1-2h-2c.37-2.741.686-4.586 2.375-6.813C3466 1362 3466 1362 3469 1362l-2-3c.321-2.634.814-4.627 2-7h2l1-2 2 3 2-1-1.563-1.188c-1.437-1.812-1.437-1.812-1.25-4.25.75-2.36 1.68-4.368 2.813-6.562l.438-1.875c.775-2.928 2.163-5.45 3.562-8.125h3c2.603 3.374 3.363 5.77 3 10h2c2.54 3.418 3.364 5.758 3 10h2v3h2c1.23 5.415 1.23 5.415.063 8.375L3494 1363l5-2c2.378 4.492 2.378 4.492 3 7-1.313 2.938-1.313 2.938-3 5h1l2-2c3.013 1.507 3.61 4.032 5 7l-2 3h4v3c4.615 1.042 4.615 1.042 9 0a82.667 82.667 0 0 1 4.297-.465l2.638-.233 2.815-.24c8.469-.758 16.849-1.735 25.25-3.062v-2h3v-2h-2v-4h2l-2-5 5 1 1-3 2 1-.5-3.188c-.396-3.017-.592-5.783-.5-8.812h3l3-1v-10l4 1 1-3 1.137 1.39c3.038 3.643 6.017 6.782 9.863 9.61l-1-4h-2c-4-4.47-4-4.47-4-7h-2v-2h-2l1-5h2l2-5 5 2-1.438-1.25c-1.861-2.085-2.407-2.951-2.562-5.75 2.239-6.493 2.239-6.493 6-9 .355-1.996.686-3.997 1-6 1.563-2.875 1.563-2.875 3-5l3 1c1.808 4.092 2.212 7.557 2 12l2-1 .375 1.938.625 2.062 2 1c.95 2.927 1.232 4.428.063 7.313L3597 1330h-2v2h-2l1 3 4-5c2.375.188 2.375.188 5 1 1.86 3.277 2 5.166 2 9h-2v2h-2v2a282.478 282.478 0 0 1-5 5l-2 3c3.503-1.168 4.02-2.101 6.063-5.063 1.535-2.222 1.535-2.222 2.937-3.937h2l2-2c2.875 6.625 2.875 6.625 4 10l-2.375 2.25c-2.631 2.487-2.631 2.487-3.75 5L3604 1360l-3 1-1 3h-2v2c-2 1.625-2 1.625-4 3l1 1h2v-2h2l1-3h2v-2l2.375-1.875c2.694-1.874 2.694-1.874 3.688-4.313.937-1.812.937-1.812 3.062-2.562l1.875-.25v3h2l2 7h-2l-.75 1.688c-1.48 2.736-3.185 4.989-5.25 7.312h-2v3c2.54-2.47 4.926-4.906 7.125-7.688C3616 1366 3616 1366 3619 1364c.685-2.123.685-2.123 1-4.5.375-2.406.375-2.406 1-4.5l3-2 2 2-2-3c.532-6.064.532-6.064 2-9h2l-.625-1.625c-.506-3.208.471-5.388 1.625-8.375h2l5 12c2.084-2.084 2.878-5.318 4-8 2.56 3.004 3.238 5.188 4 9l1.563 1.938c1.922 2.757 1.583 4.774 1.437 8.062l1 1c.707 1.344 1.392 2.7 2.063 4.063l1.097 2.222.84 1.715 1-2h2v2h2v-3l-2-1c.438-4.557.85-7.577 4-11l1 3 2 1 3 6 2 1-1.313-2.117-1.687-2.758-1.688-2.742C3661 1351 3661 1351 3661 1349l-2-1c.468-4.056.88-7.466 3-11h2l-1-3c.688-3.563.688-3.563 2-7 2.125-1.438 2.125-1.438 4-2l-1.125-2.063c-1.166-3.914-.32-6.181 1.125-9.937l2-1c.617-2.48.617-2.48 1-5.375.546-3.696.89-5.46 3-8.625zm-6 28 1 4 2-1-3-3zm9 2v2l2-1-2-1zm-96 4 2 4 1-3-3-1zm82 5-1 2h2l-1-2zm1 2c1.277 4.993 3.173 7.576 7 11-1.22-4.033-2.56-7.543-5-11h-2zm14 8 1 2zm-1 3 1 2zm-190 2-1 2h2l-1-2zm79 1v2h2v-2h-2zm25 0 1 2zm-107 1 2 2v-2h-2zm149 1 1 2zm-64 1v2h2v-2h-2zm203 0 1 2zm-200 3c2.388 4.96 4.8 9.342 9 13h2l1 2c-.501-4.385-1.983-6.8-5-10h-2l-.813-1.938c-1.074-2.393-1.074-2.393-4.187-3.062zm71 0-1 2h2l-1-2zm51 1c2.163 3.984 4.712 6.89 8 10 0-3.544-.61-4.103-2.875-6.688l-1.617-1.886c-1.404-1.655-1.404-1.655-3.508-1.426zm-28 1 1 3 1-3h-2zm50-1-2 2-2.125 2c-2.103 1.786-2.103 1.786-1.875 4h2v-2l1.875-.813c2.425-1.143 2.425-1.143 4.125-4.187l-2-1zm-96 3c0 4.033 1.609 5.835 4 9h2c-1.312-3.937-2.92-6.227-6-9zm-151 1c1.363 2.04 1.363 2.04 3 4h2l-1-3c-2.015-.733-2.015-.733-4-1zm199 0 1 3 1-3h-2zm-179 1-5 6h3c1.705-1.94 1.705-1.94 3-4l-1-2zm167 0v3h2v3l2-1-2-5h-2zm14 1 1 4zm-24.125 2.875c-2.096 1.903-2.096 1.903-1.875 4.125h2a125.024 125.024 0 0 0 4-6c-2.222-.22-2.222-.22-4.125 1.875zM3475 1368l2 2v-2h-2zm235 0 1 2zm-145 1v2l2-1-2-1zm156 1v2h2v-2h-2zm-60 1 1 2 1-2h-2zm-197 1c.579 3.288 1.548 4.937 3.938 7.25l1.59 1.578c1.42 1.38 1.42 1.38 3.472 1.172l1 3h3v-2h-2l-1-3h-2l-.75-1.75c-1.433-2.58-3.034-4.311-5.25-6.25h-2zm255 1v2h-2l1 2 2-1-1-3zm-56 1v2l2-1-2-1zm-168 1 1 2 1-2h-2zm-2 1v3h2l-1-3h-1zm-2 3v2h-2l1 3c1.542-1.375 1.542-1.375 3-3v-2h-2zm12 3-2 3 3 1-1-4zm-17 2-1 3 3-1-2-2zm-21 5 2 2v-2h-2zm42 50-3 1c-2.209 1.875-2.209 1.875-4 4v2h74v-2c-9.41-9.387-22.657-8.11-34.957-8.12a640.7 640.7 0 0 1-10.88-.13 2525 2525 0 0 0-6.917-.07l-3.286-.047-3.036.007-2.67-.01c-2.74.45-3.44 1.345-5.254 3.37zm101.86 1.68-2.11 1.195-2.14 1.18-1.61.945 1 2h12c-.544-3.949-.544-3.949-2.797-5.367-2.199-.852-2.199-.852-4.344.047zm49.14-.68a105.022 105.022 0 0 0-4 5c1.008 1.233 1.008 1.233 3.066 1.098l2.497-.035 2.503-.028L3664 1446v-3c-2.619-2.427-2.619-2.427-6-3zm64 4v2h94c-4.288-4.288-6.802-5.241-12.828-5.319l-3.565-.06-3.857-.035c-1.336-.019-2.673-.038-4.01-.059-3.53-.051-7.06-.09-10.59-.128-3.516-.04-7.032-.09-10.548-.141-5.408-.076-10.815-.135-16.223-.18-4.557-.04-9.109-.115-13.664-.241l-2.808-.057a246.911 246.911 0 0 1-4.986-.15c-4.929-.075-7.52.751-10.921 4.37zm-36-1-1 3h6l-1-3h-4z" fill="#26203C"/><path d="M3766 1330c3.538 3.692 3.591 7.094 4 12h2l1 8h-2v2h5c1.892 7.787 2.943 14.605-1.031 21.89-.925 1.415-1.939 2.77-2.969 4.11 2.293 1.147 3.8 1.197 6.352 1.316l2.578.127 2.695.12 2.719.13c2.218.107 4.437.209 6.656.307l-1 2c-2.563.625-2.563.625-5 1l.625 2.375.375 2.625-2 2c-.673 1.967-.673 1.967-1.125 4.125L3784 1398l3 1-.07 2.414c-.096 5.622-.148 10.318 2.07 15.586v2h1l.34 2.703c.862 6.701.862 6.701 4.652 11.91 2.309.945 4.622 1.665 7.008 2.387 2.153 1.2 4.017 2.525 6 4v1c-7.625.023-15.25.041-22.876.052-3.543.005-7.086.012-10.629.023-15.523.05-31.002.028-46.495-1.075 1.258-3.775 2.625-4.107 6-6 2.314-1.978 2.314-1.978 2.938-5.563L3738 1425l3-1-.494-1.702c-.536-2.434-.62-4.574-.604-7.064l.01-2.695.026-2.789.013-2.836c.012-2.305.028-4.61.049-6.914h-2l-1-7h-2v-3h-2c.547-3.375 1.055-5.082 3-8h-3v-5l5-1v-2h2v-5l3 1-1-4 3-1-1-5h2l.438-2.313C3747 1355 3747 1355 3748 1352h2v3h2l.375 1.938.625 2.062 2 1 .438-2.438C3756 1355 3756 1355 3757 1354l1-3h2l-1-5h2l-1-3c.96-2.883.96-2.883 2.375-6.125l1.398-3.258C3765 1331 3765 1331 3766 1330zm7 26 1 2zM3551 1381l-1 5h-2v4l-2 1c-1.134 6.29-.885 11.968-.156 18.3.146 2.533-.07 4.306-.844 6.7h2l1-3v7l-2 1h4v3h2c1.765 3.088 2 4.233 2 8h-2v2l1.625-.688c3.436-.452 5.433 1.016 8.375 2.688v1c-6.62.05-13.24.086-19.86.11-2.253.01-4.505.024-6.758.04-3.237.025-6.473.036-9.71.045l-3.053.032h-2.85l-2.504.014c-2.487-.265-4.114-.995-6.265-2.241 1.968-1.968 5.348-1.662 8-2l-2-6 3-1-.498-1.68c-.556-2.568-.582-4.826-.53-7.453l.038-2.941c.035-2.042.074-4.084.117-6.125l.033-2.934.051-2.684c.002-2.394.002-2.394-2.211-4.183.375-2.625.375-2.625 1-5l-5-1-1-7 3.629-.367c9.117-.935 18.197-1.958 27.27-3.266A55.288 55.288 0 0 1 3551 1381z" fill="#3F2A49"/></svg>