<svg xmlns="http://www.w3.org/2000/svg" width="3840" height="2160"><path d="M149.938 699.688c.831.005 1.663.01 2.52.017 10.133.195 19.746 1.718 29.213 5.432 10.545 4.094 21.093 5.653 32.267 7.05 29.123 3.766 29.123 3.766 35.835 10.208C251 724 251 724 251.75 727c-1.041 4.166-2.71 5.96-5.75 9-11.07 3.69-24.629-.535-35.684-3.055C199.478 730.49 189.112 729.2 178 729l-3.746-.086c-4.421-.045-8.834.007-13.254.086l-3.53.054c-30.982.528-61.02 4.473-91.599 9.325l-2.567.404a320.874 320.874 0 0 0-14.987 2.775c-12.265 2.338-24.714 1.57-37.067.442L0 741v-31c4.138-1.035 8.022-1.27 12.254-1.43l5.033-.222c2.612-.112 5.224-.221 7.837-.322 10.295-.406 20.276-1.272 30.436-3.007 8.837-1.484 16.957-1.08 25.815-.019 19.082 2.023 37.712 1.64 56.203-4.113 4.198-1.088 8.042-1.23 12.36-1.2zM1294.582 790.738c21.51 6.291 40.275 1.751 61.523-3.804 13.35-3.302 28.919-3.965 41.895 1.066l2.629.879c5.61 1.998 10.427 4.55 14.371 9.121v2c-8.204 2.12-16.456 2.82-24.875 3.5l-2.286.19a1447.726 1447.726 0 0 1-35.651 2.497l-2.17.13c-15.45.909-30.497.65-45.893-.692l-4.547-.383-2.298-.194-4.723-.395a800.456 800.456 0 0 1-13.064-1.203c-14.734-1.432-29.297-1.599-44.092-1.429-19.394.205-38.741.197-58.089-1.333l-2.345-.18c-8.292-.653-16.517-1.644-24.737-2.926l-2.272-.337c-4.252-.705-7.429-1.755-10.958-4.245 2-2 2-2 3.917-2.207l2.37.06 2.695.049 2.932.078c2.063.03 4.125.06 6.188.088 3.24.056 6.48.118 9.72.2 13.484.317 24.585-.38 37.178-5.268a287.487 287.487 0 0 1 5.762-1.766l2.51-.757 2.416-.727 2.544-.773c26.803-8.065 53.432 1.002 79.35 8.761zM3158.376 696.87l3.699-.005c3.329-.003 6.657-.003 9.986 0 3.5.003 7 0 10.501 0 5.881-.003 11.762 0 17.643.005 6.77.005 13.541.003 20.312-.002 5.838-.005 11.675-.005 17.512-.003 3.476.002 6.951.002 10.427-.001 3.883-.004 7.767.001 11.65.007l3.43-.007c6.331.017 12.564.31 18.867.915 3.668.312 7.252.281 10.933.213l4.477-.05c2.279-.031 4.557-.067 6.836-.113 12.811-.246 24.503.973 36.601 5.608l3.203 1.184c2.785 1.508 3.523 2.437 4.547 5.379-6.584 4.39-16.148 1.709-23.626.83-17.993-2.086-35.36-1.631-53.374.17l-2.445.238c-17.89 1.745-35.737 3.746-53.48 6.645l-2.97.484c-4.68.77-9.356 1.565-14.026 2.397-14.48 2.517-29.195 3.688-43.766 1.048l-2.346-.4c-11.792-2.147-25.092-5.43-34.967-12.412-.816-2.184-.816-2.184-1-4 12.744-7.247 27.018-8.155 41.376-8.13zM441.43 731.66l2.97.59 3.6.75 4.462.917c5.268 1.09 10.528 2.21 15.788 3.333l2.829.601c11.728 2.498 23.41 5.042 34.908 8.472 7.226 2.063 15.06 3.403 22.087.068a114.494 114.494 0 0 0 3.614-2.141l1.944-1.107A295.622 295.622 0 0 0 539 740c5.909-3.526 11.11-5.441 18-4 4.417 2.183 7.28 4.92 10 9 1.074 3.223 1.307 5.626 1 9l-1 2h-2v2c-5.108 3.366-8.819 4.604-15 4.375l-2.246-.037c-4.8-.127-9.444-.66-14.192-1.4-5.506-.829-10.541-.954-16.062-.563-31.504 2.21-31.504 2.21-45.5-3.375a350.34 350.34 0 0 0-3.996-1.32c-13.233-4.338-26.22-9.693-37.004-18.68 1-3 1-3 2.875-4.813 3.35-1.273 4.177-1.205 7.555-.527zM636.313 721.563c2.96 2.75 5.843 5.567 8.687 8.437l-1 3-12.438 1.438-3.529.408c-2.293.265-4.587.528-6.881.791-1.918.221-3.836.445-5.753.675-4.557.537-9.055.876-13.649.938l-3.516.078c-3.573-.362-5.38-1.191-8.234-3.328-3.725-5.138-3.712-10.879-3-17 1.47-3.735 1.47-3.735 4-5 17.663-3.076 31.468-2.743 45.313 9.563zM3458 693c2.052 2.612 2 4.009 1.938 7.375-1.114 4.306-2.158 7.215-5.938 9.625-18.059 5.592-45.492 4.003-63-3 .176-2.344.176-2.344 1-5 13.232-8.583 52.722-18.548 66-9zM634 700c4.752.383 9.295 1.054 13.953 2.047 6.67 1.227 13.165 1.047 19.922.89 12.364-.127 23.995.743 36.125 3.063l3.142.584c3.29.62 6.575 1.262 9.858 1.916l3.097.61c4.813 1.01 8.872 1.902 12.903 4.89l-1 5c-1.354.055-2.708.093-4.063.125l-2.285.07C723 719 723 719 719.774 718.002c-3.79-1.006-6.901-1.246-10.81-1.232l-3.95.005-2.03.02c-2.045.017-4.09.02-6.134.02-5.755.025-11.18.16-16.85 1.185-7.15.431-13.493.66-20.074-2.328-5.008-1.747-10.608-1.03-15.614.328-3.312 0-3.312 0-5.261-1.469C634.996 710.255 633 706.92 633 701l1-1zM1451.336 811.934C1453 813 1453 813 1453.75 816.125L1454 819c-2.894 1.605-5.353 2.366-8.625 2.816l-2.64.377-2.735.37c-1.792.25-3.584.5-5.375.753l-2.398.327c-2.219.322-2.219.322-4.325.89-2.787.685-5.475.638-8.34.654l-3.37.043c-4.314-.311-7.12-1.157-10.192-4.23.204-2.592.72-3.72 2.566-5.563 14.992-10.796 25.607-10.363 42.77-3.503zM167 741c5.19 3.162 8.251 8.316 10 14l-1 3c-2.766 1.133-2.766 1.133-6.25 2.125l-3.453 1.008c-5.08 1.336-9.654 2.044-14.922 2.117l-3.414.078C145 763 145 763 143.156 761.633c-1.61-2.273-2.023-3.846-2.156-6.633 2.229-5.227 5.981-7.198 10.75-9.813l2.094-1.232c4.503-2.518 7.877-3.698 13.156-2.955zM243.938 695.625l2.21.003c9.418.2 20.036 1.865 27.852 7.372 1.313 2.188 1.313 2.188 2 4-2.402 3.126-3.575 3.94-7.547 4.496-1.401.006-2.803-.015-4.203-.058l-2.264-.045c-12.444-.41-23.387-2.454-33.986-9.393l1-4c5.034-1.636 9.624-2.387 14.938-2.375zM290 742c2.398 1.906 2.905 2.455 3.438 5.5-.438 2.5-.438 2.5-1.983 4.14-3.372 1.868-6.43 1.724-10.178 1.61l-2.248-.044c-1.564-.036-3.128-.08-4.692-.132a377.502 377.502 0 0 0-7.183-.133c-1.521-.04-3.043-.083-4.564-.129l-2.169-.016c-2.023-.089-2.023-.089-5.421-.796-1.994-2.395-1.994-2.395-3-5 .37-2.963 1.344-4.363 3.469-6.426 10.25-7.71 23.874-3.315 34.531 1.426zM97 748c5.208 3.14 9.605 6.959 13 12 .813 3.875.813 3.875 1 7-3.656-.457-6.897-.968-10.426-2.07-5.874-1.499-11.77-.813-17.761-.43-2.306.146-4.612.282-6.918.406l-3.068.198c-3.034-.112-5.098-.816-7.827-2.104.156-1.848.156-1.848 1-4 2.406-1.309 2.406-1.309 5.5-2.438 4.767-1.838 9.15-3.883 13.563-6.449C89.593 747.51 91.76 746.388 97 748zM314.5 715.313l2.281.238c2.382.482 4.144 1.189 6.219 2.449 1.366 2.732 1.128 4.982 1 8-3.764 3.764-15.71 2.109-20.938 2.125l-2.548.014-2.416-.006-2.172-.004C294 728 294 728 291 727c.074-1.77.074-1.77 1-4a59.27 59.27 0 0 1 6.813-3.688l1.908-.931c4.88-2.34 8.4-3.686 13.779-3.068zM3349 719c3.342 0 5.415.509 7.992 2.672 3.674 3.925 3.674 3.925 5.008 6.328-.309 2.766-.309 2.766-1 5-3.188.375-3.188.375-7 0-3.08-2.621-4.743-4.158-5.305-8.18-.008-2.195-.008-2.195.305-5.82z" fill="#E58B3D"/></svg>