<svg xmlns="http://www.w3.org/2000/svg" width="3840" height="2160"><path d="M2435 983c2.585 1.642 5.171 3.281 7.759 4.918a729.235 729.235 0 0 1 4.8 3.074c6.349 4.07 12.765 7.444 19.816 10.133 6.98 2.862 13.418 6.552 19.973 10.258 11.68 6.602 23.61 12.817 35.686 18.663 1.302.632 2.601 1.27 3.897 1.916 16.716 8.27 34.947 11.22 53.506 11.288l2.899.012c6.992-.056 13.539-.921 20.385-2.258 6.913-1.284 13.308-.723 20.279-.004 9.145.51 17.172-.573 26-3v-2c5.439-4.138 5.439-4.138 9.164-3.809 3.842 1.125 7.48 2.663 11.18 4.184l3.656 1.5 1.89.786c5.819 2.36 11.763 4.021 17.856 5.514 8.598 2.194 14.73 6.784 21.535 12.29 5.254 4.16 9.05 5.81 15.762 5.66l3.506-.047 7.219-.156c7.022-.093 13.418.326 20.232 2.078v2l2.16.184 2.903.254c.94.08 1.879.162 2.847.246 2.154.22 4.302.504 6.442.836 9.43 1.242 19.515 1.673 28.472-1.864 5.945-1.793 10.677.09 16.238 2.219 9.476 3.412 18.689 4.24 28.672 4.94 6.657.545 12.995 1.905 19.266 4.185 7.146 2.339 12.54 3.092 19.459-.342l1.854-.97c9.542-4.91 18.862-7.095 29.5-8.313 2.006-.24 4.013-.483 6.019-.727.874-.1 1.748-.202 2.648-.307 1.7-.23 3.393-.52 5.074-.866 2.292-.445 4.418-.643 6.747-.721l2.433-.096 2.579-.095c6.134-.256 12.11-.693 18.187-1.626 7.455-1.048 14.732-.935 22.25-.812 13.527.185 26.644-.918 39.25-6.125 1.6-.466 3.2-.93 4.805-1.375 5.092-1.45 10.138-3.06 15.195-4.625 4.331-1.34 8.664-2.676 13-4l2.233-.682c13.778-4.091 27.867 1.871 40.767 6.682 4.388 1.627 8.784 3.227 13.188 4.813l3.404 1.271c7.76 2.766 12.724 3.952 20.49.576l2.73-1.598 2.77-1.59A157.15 157.15 0 0 0 3149 1052h3v-2l2.875-1.625c2.931-1.668 5.805-3.41 8.676-5.18 5.428-3.26 11.031-6.01 16.762-8.695l3.07-1.454a1585.82 1585.82 0 0 1 18.512-8.585 381.951 381.951 0 0 0 9.133-4.468 830.15 830.15 0 0 1 4.173-2.086c2.936-1.456 5.836-2.928 8.697-4.528 7.442-3.944 15.877-5.774 24.102-3.379 6.084 2.987 12.232 7.152 17 12v2l1.688.25c3.04.986 4.942 2.636 7.312 4.75l1 2 2.5 1c2.5 1 2.5 1 3.5 3l2.563 1.5 2.437 1.5v2l1.766.324c2.555.773 3.925 1.796 5.984 3.488 5.07 4.075 10.267 7.96 15.49 11.836l1.99 1.485 1.763 1.309c2.007 1.558 2.007 1.558 4.724 4.172 3.526 2.94 7.119 3.243 11.584 3.425l2.408.159c2.534.164 5.068.297 7.604.427 3.309.188 6.617.39 9.925.602l2.47.152c6.266.434 12.357 1.356 18.497 2.679 10.143 2.074 20.383-.076 29.795-4.058h4v-2h4v-2c4.189-1.583 7.58-2.235 12.05-2.148l3.44.055 3.51.093 3.326.07c3.288.079 6.574.188 9.861.305 1.098.03 2.196.062 3.327.094 4.81.172 9.392.41 14.084 1.515 4.802 1.067 9.518 1.313 14.418 1.508l2.497.101c3.439.133 6.878.256 10.318.36 16.336.52 16.336.52 24.372 3.117 7.804 2.518 15.224 2.243 23.297 1.93 9.862-.383 18.007-.11 27.462 3.082 4.241 1.282 8.668 1.871 13.038.918 2.462-2.02 3.704-4.108 5-7h2v-2c8.457-4 16.358-4.597 25.532-4.467 2.201.03 4.4.021 6.6.008 8.536.014 16.443.886 24.766 2.788 6.27 1.357 11.582.674 17.758-.817 10.055-2.196 20.999-3.185 30.344 1.488 5.835 2.144 11.515 2.416 17.703 2.781 3.297.219 3.297.219 7.047.782 7.8 1.05 14.288.46 21.805-1.907C3734 1064 3734 1064 3738 1064v-2c4.797-1.567 8.91-2.727 14-2 1.888 1.412 3.539 2.974 5.25 4.594 3.688 2.963 7.766 2.476 12.25 2.156 3.783-.81 6.972-2.182 10.5-3.75 3.987-1.259 7.265-.784 11.328-.266 10.633 1.125 10.633 1.125 20.672-1.734l2-3h2v-2c4.744-2.227 8.723-3.461 14-4v-2c3.774-2.322 5.012-2 10-2v1112H0V1002c10.966-2.741 19.045-3.75 29.992-.691 3.108.714 5.833.695 9.008.691 2.351.957 4.687 1.953 7 3h3l1.137-2.266c3.585-6.9 6.59-11.532 13.863-14.734 2.019-.28 2.019-.28 4.185-.322l2.49-.058 2.688-.026 2.823-.042c3.043-.035 6.084-.047 9.126-.052l3.143-.01c17.084-.003 32.557 1.774 49.164 5.75 5.46 1.228 10.976 2.043 16.506 2.885 8.805 1.395 17.82 2.848 25.875 6.875v2l3 1c1.125 3.438 1.125 3.438 2 7l1 2c6.76.663 11.404-1.133 17.559-3.906 7.2-2.288 14.105-1.054 21.316.656.782.181 1.563.362 2.368.55 15.359 3.668 15.359 3.668 21.382 8.325 8.272 6.32 20.084 4.546 29.938 4.375 3.105-.054 6.21-.093 9.316-.125l2.11-.05c6.897-.068 12.961 1.799 19.511 3.8.856.26 1.712.52 2.594.79.629.192 1.258.386 1.906.585v2l2.313-.25c3.479.236 5.395.835 8.562 2.125 6.049 2.358 11.815 2.966 18.23 3.535 3.649.553 6.492 1.468 9.879 2.826 9.158 3.471 19.387 4.886 29.086 5.83l2.575.254c12.019 1.106 24.1 1.336 36.16 1.634 12.165.312 23.602 1.107 35.42 4.097 4.544 1.142 9.075 1.88 13.712 2.512 5.865.799 11.427 2.021 17.124 3.632 5.252 1.438 10.567 2.604 15.877 3.805 23.722 5.387 23.722 5.387 29.375 7.625 3.636 1.356 6.855 1.878 10.687 2.375 2.003.657 4.003 1.325 6 2 2.72.795 5.453 1.536 8.188 2.277l2.362.643 4.942 1.339c2.474.67 4.946 1.345 7.418 2.02 11.754 3.195 23.533 6.337 35.653 7.784 4.718.59 9.424 1.213 14.125 1.937l3.214.492c1.998.328 3.991.685 5.977 1.078 11.613 2.244 23.418 2.303 35.023-.011 3.035-.548 6.053-.867 9.12-1.16 8.765-.882 15.391-3.024 22.537-8.282 7.588-5.44 13.233-5.974 22.441-5.117l2.387.145c3.412.288 5.977 1.018 9.113 2.418 5.242 2.123 10.717 1.588 16.262 1.484 8.014-.14 16.055.195 23.875 2.015 6.162 1.27 12.052 1.005 18.3.563l3.65-.25c12.474-1.09 24.027-4.573 35.811-8.672 2.655-.717 4.867-.836 7.602-.703v-2h4l1-2c2.563-.625 2.563-.625 5-1v-2c7.275-1.129 7.275-1.129 10.671-.525 3.672.579 7.207.72 10.923.806l2.15.056c2.252.058 4.504.111 6.756.163 2.969.068 5.938.142 8.906.219l3.979.092c3.299.172 6.373.58 9.615 1.189 18.602 3.107 37.178 5.739 55.942 7.656 7.44.767 14.757 1.67 22.058 3.344l4.375.938c13.654 3.072 13.654 3.072 19.625 5.062v2l2.938-.125c2.954-.012 5.514.402 8.375 1.125 7.68 1.803 13.805 1.956 20.753-1.973 5.662-3.008 10.693-3.05 16.934-2.027 7.962.387 15.27-.094 23-2l2.078-.402c4.808-.994 8.572-2.905 12.746-5.477 4.687-2.415 9.67-2.28 14.836-2.289l2.238-.012c2.388-.01 4.776-.01 7.165-.007l2.456-.003c10.919.001 21.653.329 32.493 1.753 2.823.36 5.545.472 8.39.437 4.88-.059 9.63.45 14.473 1 15.139 1.656 15.139 1.656 29.715-2.125 2.41-.875 2.41-.875 6.41-.875v-2c13.173-6.021 24.69-9.292 39.264-9.622 10.011.168 10.011.168 18.736-3.378a99.984 99.984 0 0 1 5 0v-2c18.114-6.568 36.785-6.198 55 0 2.367.403 4.743.756 7.125 1.063 6.53.85 6.53.85 8.722 1.407 2.597.64 5.195 1.053 7.837 1.467l3.31.524 3.444.539c2.248.353 4.497.707 6.746 1.063l3.017.472c1.803.3 3.601.627 5.392.99 3.858.761 7.75 1.125 11.657 1.537l2.45.276c11.333 1.206 22.36.27 33.675-.713l2.44-.21c3.992-.345 7.984-.695 11.976-1.048 3.386-.298 6.773-.572 10.162-.836 11.929-.994 24.291-3.04 35.047-8.531 2.75-.125 2.75-.125 5 0v-2c3.372-1.63 6.748-3.254 10.125-4.875l2.883-1.395c21.497-10.3 40.658-3.187 62.383 3.704 4.302.933 6.958-.494 10.734-2.496 3.654-1.938 3.654-1.938 5.875-1.938l.375-1.813c.791-2.77 1.903-4.66 4.25-6.374 7.25-2.48 15.857-.124 23.188 1.062l3.369.527c6.174.976 12.329 2.033 18.475 3.17 1.844.337 3.693.65 5.542.955 4.698.775 8.993 1.761 13.434 3.54 3.305 1.303 6.64 2.508 9.992 3.683l1.92.712c7.126 2.469 11.539.56 18.019-2.441 4.123-1.728 8.397-2.672 12.748-3.646l2.819-.646c52.157-11.786 52.157-11.786 71.869-1.729l3 2c2.066.068 2.066.068 4-1l1.184-2.39c2.387-3.43 5.051-4.12 8.879-5.297 6.504-2.198 12.311-5 18.25-8.438 8.419-4.834 16.408-8.123 25.874-10.375 5.11-1.237 9.27-2.893 13.813-5.5 1.06-.59 2.122-1.18 3.215-1.79 5.603-3.138 11.124-6.373 16.535-9.835l2.664-1.7a247.494 247.494 0 0 0 5.172-3.445l2.539-1.668 2.195-1.496c11.327-4.507 32.228.279 43.215 4.477 3.613 1.592 7.029 3.515 10.465 5.457a509.98 509.98 0 0 0 6.327 3.15c1.98.973 3.95 1.96 5.92 2.955l1.865.94c1.292.653 2.581 1.313 3.868 1.977a122.917 122.917 0 0 0 13.707 5.978l2.087.775c5.391 1.976 10.837 3.717 16.34 5.362 4.822 1.442 9.601 3 14.31 4.779 7.596 2.868 15.263 4.892 23.146 6.795 6.14 1.535 11.745 3.5 17.43 6.289v2l3-1 3.71.91c7.512 1.813 15.324 1.477 23.012 1.546 2.043.022 4.086.062 6.13.103l3.65.04c3.965.455 6.89 1.733 10.498 3.401 7.84 2.303 16.016 2.501 24.125 2.938 40.428 2.538 40.428 2.538 48.727 9.832 2.19 1.568 2.19 1.568 5.171.617 2.71-1.262 4.623-2.584 6.977-4.387a204.2 204.2 0 0 1 7.625-3.75l2.238-1.05c6.255-2.888 12.62-5.439 19.071-7.853 3.122-1.173 6.075-2.352 9.039-3.894 3.83-1.838 7.669-2.857 11.777-3.89l2.51-.646c7.158-1.82 14.353-3.45 21.572-5.003 3.763-.812 7.494-1.735 11.23-2.664 6.246-1.447 11.857-1.975 18.126-.5 3.217.286 4.57-.402 7.128-2.309a105.093 105.093 0 0 0 3.711-3.351c4.767-4.482 8.691-7.015 14.871-9.149 2.89-1.294 3.843-3.109 5.102-5.941h2l1-3c5.289-4.797 10.733-6.294 17.598-8.008 10.506-3.064 14.326-9.873 19.402-18.992a686.41 686.41 0 0 0 2.375-5.188c2.493-5.132 5.931-8.6 10.625-11.812 3-1 3-1 5.5-.563 8.267 1.33 16.008.504 24.164-1.195 19.164-1.391 40.923 13.86 56.336 23.758z" fill="#8E4244"/></svg>