<svg xmlns="http://www.w3.org/2000/svg" viewBox="2307 1862.68 571 77.28"><path d="M2319.875 1862.688c2.654.081 4.065.284 6.5 1.437 4.206 4.853 4.392 12.116 5.25 18.25l.406 2.809c.328 2.271.65 4.543.969 6.816 2.852-.582 4.006-1.005 6.313-2.938 5.647-4.334 11.861-4.47 18.687-4.062 3.571.53 7.091 1.264 10.625 2 8.949 1.762 17.265 2.51 26.375 2-3 2-3 2-5.625 3.438-2.665 1.402-2.665 1.402-3.375 4.562 1.67-.03 1.67-.03 3.375-.063C2393 1897 2393 1897 2395 1898c.625 3.063.625 3.063 1 6-3.215 1.607-6.436 1.057-10 1l1 4h2v2l7 1v1l-2.29-.14c-7.895-.26-14.984.603-22.71 2.14-21.857 4.285-21.857 4.285-31-1l-3-3h-3c-.105.57-.21 1.138-.32 1.725-.489 2.614-.99 5.226-1.492 7.838l-.502 2.712c-1.019 5.246-2.065 10.038-4.686 14.725-2.156 1.156-2.156 1.156-4.5 1.5l-2.344.406C2318 1940 2318 1940 2315 1939l-1.375-1.938c-1.958-2.485-3.658-3.1-6.625-4.062v-2c4.404-.86 8.523-1 13-1l3-1c.878-3.757 1.105-7.196 1.063-11.05l-.025-3.535-.038-3.727c-.068-9.237.056-18.306 1.074-27.489-.096-4.147-1.155-6.53-3.074-10.199-2.702-1.35-5.118-1.339-8.125-1.563l-3.32-.253L2308 1871v-2a187.385 187.385 0 0 1 6-4c2-2 2-2 5.875-2.313z" fill="#16141F"/><path d="M2497 1864c2.813-.25 2.813-.25 6 0 2.02 2.063 2.914 3.42 3.34 6.29-.015.817-.03 1.634-.047 2.476l-.03 2.695-.075 2.789-.042 2.836c-.035 2.305-.084 4.61-.146 6.914 3.469-1.333 3.469-1.333 6.75-3.059 3.086-1.29 5.665-1.168 9.004-1.129l1.987.022c7.415.12 14.801.626 22.197 1.166l4.13.29c3.311.231 6.622.468 9.932.71l-2 3h-3c-.332 3.003-.332 3.003 1.5 4.688l1.5 1.312-3 2 2 1v3l-5 1a56.54 56.54 0 0 0 7 4v2c-6.67.602-13.342 1.186-20.016 1.748-1.844.156-3.687.314-5.53.477a625.4 625.4 0 0 1-6.454.525l-3.625.297c-6.314-.088-11.708-2.503-17.375-5.047.01.585.02 1.17.032 1.772.041 2.66.067 5.319.093 7.978.017.92.034 1.84.05 2.79l.02 2.694.032 2.476c-.257 2.59-.742 4.151-2.227 6.29-3.625.75-3.625.75-7 1l-.313-1.938L2496 1927l-3-1v-2a99.185 99.185 0 0 1 5-3c1.63-1.63 1.21-3.444 1.25-5.688-.033-4.624-1.147-7.19-3.25-11.312-1.705-7.342-.763-12.475 2.055-19.352 1.382-3.872 1.998-7.619.945-11.648-2.373-2.009-2.373-2.009-5-3v-2l2-1 1-3z" fill="#181520"/><path d="M2592 1866c2.8.303 4.504.504 6.531 2.531 2.03 3.412 2.783 6.872 3.657 10.719l.537 2.258c.433 1.829.855 3.66 1.275 5.492l3.063-2c11.866-5.84 26.92-1.022 38.722 2.934 1.755.646 3.49 1.347 5.215 2.066l-1 3 6 1v3l-5 2 2 2-1.688.332c-3.864.803-7.528 1.673-11.187 3.168-9.305 3.63-21.039 5.577-30.625 2.125-3.5-1.625-3.5-1.625-6.5-3.625l-.375 3.938c-1.496 12.814-1.496 12.814-5 16.687-2.625 1.375-2.625 1.375-4.617 1.184-2.509-1.01-3.29-2.128-4.758-4.371l-1.297-1.942L2586 1917l3.438-.875L2593 1915c1.64-3.279 1.12-6.906 1.098-10.508l-.005-2.547c-.005-2.69-.018-5.38-.03-8.07A6319.916 6319.916 0 0 0 2594 1875l-7-1c1.372-2.954 2.989-5.44 5-8zM2730 1868c1.675.286 3.344.618 5 1 1.916 4.982 2.555 9.727 3 15l1.582-.656c11.707-4.429 26.96-3.208 38.418 1.656 1.595.41 3.2.788 4.813 1.125l2.394.508 1.793.367-1 2h-2v2h2v5h-2v2h3v2l-1.793.367-2.394.508-2.356.492c-2.471.566-2.471.566-4.734 1.633-3.658 1.343-7.239 1.713-11.098 2.125l-2.21.262c-12.229 1.375-12.229 1.375-18.165-.824l-2.234-.81L2740 1903l-3-1 .07 2.23.055 2.957.07 2.918c-.207 3.07-.766 5.177-2.195 7.895-2.563.875-2.563.875-5 1-1-1-1-1-1.125-4.5.125-3.5.125-3.5 1.125-4.5.539-3.665.006-4.99-2-8.188-2.696-4.445-2.977-8.744-2-13.812 1.193-2.23 2.55-4.207 4.02-6.262 1.286-1.81 1.286-1.81.293-4.363L2729 1875c-.188-3.25-.188-3.25 0-6l1-1z" fill="#16141F"/><path d="M2825.14 1866.066c1.86.934 1.86.934 3.07 3.102.862 3.09 1.204 5.945 1.415 9.145l.227 3.238.148 2.449c2.72-.48 5.127-1.05 7.7-2.077 3.864-1.08 7.06-.84 10.964-.314l2.165.264c1.502.185 3.003.377 4.503.575 2.291.302 4.584.58 6.879.857 1.464.183 2.927.368 4.39.554l2.068.253c3.467.467 6.32 1.07 9.331 2.888l-4 2 .563 1.875C2875 1893 2875 1893 2874 1895l1 3c-4.836 1.821-9.4 2.595-14.5 3.125l-2.386.253c-9.631.954-18.789 1.578-28.114-1.378l-.113 3.176c-.066 1.379-.132 2.758-.2 4.137l-.068 2.091c-.156 2.932-.292 5.109-1.951 7.58-1.668 1.016-1.668 1.016-5.043.954-3.862-1-5.824-2.137-8.625-4.938v-2l8-2c.969-2.15.969-2.15 1-5-1.047-1.634-1.047-1.634-2.438-3.25-2.712-3.503-3.29-6.085-3.074-10.484.751-3.326 2.507-5.658 4.465-8.403 1.352-2.017 1.352-2.017.86-5.363l-.813-2.5h-6l-1-4a205.189 205.189 0 0 1 3.75-2.063l2.11-1.16c2.14-.777 2.14-.777 4.28-.71z" fill="#17141F"/><path d="m2324 1899 1 3a190.628 190.628 0 0 0 30.813 2.313l2.099-.002c10.938-.024 21.408-.872 32.088-3.311 1.666-.337 3.332-.672 5-1l1 4c-3.215 1.607-6.436 1.057-10 1l1 4h2v2l7 1v1l-2.29-.14c-7.895-.26-14.984.603-22.71 2.14-21.857 4.285-21.857 4.285-31-1l-3-3h-3c-.105.57-.21 1.138-.32 1.725-.489 2.614-.99 5.226-1.492 7.838l-.502 2.712c-1.019 5.246-2.065 10.038-4.686 14.725-2.156 1.156-2.156 1.156-4.5 1.5l-2.344.406C2318 1940 2318 1940 2315 1939l-1.375-1.938c-1.958-2.485-3.658-3.1-6.625-4.062v-2c4.404-.86 8.523-1 13-1l3-1c.863-3.719 1.117-7.143 1.098-10.957l-.01-3.37-.026-3.486-.013-3.544c-.012-2.881-.028-5.762-.049-8.643z" fill="#4B3444"/><path d="m2555 1897 2 1v3l-5 1a56.54 56.54 0 0 0 7 4v2c-6.67.602-13.342 1.186-20.016 1.748-1.844.156-3.687.314-5.53.477a625.4 625.4 0 0 1-6.454.525l-3.625.297c-6.314-.088-11.708-2.503-17.375-5.047.01.585.02 1.17.032 1.772.041 2.66.067 5.319.093 7.978.017.92.034 1.84.05 2.79l.02 2.694.032 2.476c-.257 2.59-.742 4.151-2.227 6.29-3.625.75-3.625.75-7 1l-.313-1.938L2496 1927l-3-1v-2a99.185 99.185 0 0 1 5-3c1.63-1.63 1.21-3.444 1.25-5.688-.026-4.581-1.088-7.258-3.25-11.312-.188-3.875-.188-3.875 0-7l1.93.438c17.317 3.307 42.179-5.402 57.07-.438z" fill="#4C3545"/><path d="m2594 1894 2 1c12.937 1.408 26.008 1.119 39 1.063 2.047-.006 4.094-.01 6.14-.014 4.954-.011 9.907-.028 14.86-.049-3 2-3 2-5 3l2 2-1.688.332c-3.864.803-7.528 1.673-11.187 3.168-9.305 3.63-21.039 5.577-30.625 2.125-3.5-1.625-3.5-1.625-6.5-3.625l-.375 3.938c-1.496 12.814-1.496 12.814-5 16.687-2.625 1.375-2.625 1.375-4.617 1.184-2.509-1.01-3.29-2.128-4.758-4.371l-1.297-1.942L2586 1917l3.438-.875L2593 1915c1.174-2.349 1.115-3.738 1.098-6.352l-.01-2.578-.026-2.695-.013-2.719c-.012-2.219-.028-4.437-.049-6.656z" fill="#4A3343"/><path d="M2726 1888h1l1 5c8.288 2.438 15.873 3.485 24.5 3.375l3.38-.018c10.215-.157 20.098-1.457 30.12-3.357v3h-2v2h3v2l-1.793.367-2.394.508-2.356.492c-2.471.566-2.471.566-4.734 1.633-3.658 1.343-7.239 1.713-11.098 2.125l-2.21.262c-12.229 1.375-12.229 1.375-18.165-.824l-2.234-.81L2740 1903l-3-1 .07 2.23.055 2.957.07 2.918c-.207 3.07-.766 5.177-2.195 7.895-2.563.875-2.563.875-5 1-1-1-1-1-1.125-4.5.125-3.5.125-3.5 1.125-4.5.635-4.32-.862-6.376-3.11-9.953-1.67-3.842-1.187-7.943-.89-12.047z" fill="#4B3444"/><path d="m2875 1893-1 2 1 3c-4.836 1.821-9.4 2.595-14.5 3.125l-2.386.253c-9.631.954-18.789 1.578-28.114-1.378l-.113 3.176c-.066 1.379-.132 2.758-.2 4.137l-.068 2.091c-.156 2.932-.292 5.109-1.951 7.58-1.668 1.016-1.668 1.016-5.043.954-3.862-1-5.824-2.137-8.625-4.938v-2l8-2c.969-2.15.969-2.15 1-5-1.178-1.943-2.497-3.622-3.969-5.352L2818 1897l1-3 3 1c2.05.04 4.102.013 6.152-.05l3.767-.117c1.34-.048 2.679-.096 4.019-.146l2.035-.068c9.431-.321 18.802-.895 28.173-2.046 3.358-.402 5.6-.658 8.854.427z" fill="#4C3444"/></svg>